<?xml version="1.0" encoding="utf-8"?>
<!-- Generator: Adobe Illustrator 16.0.0, SVG Export Plug-In . SVG Version: 6.00 Build 0)  -->
<!DOCTYPE svg PUBLIC "-//W3C//DTD SVG 1.1//EN" "http://www.w3.org/Graphics/SVG/1.1/DTD/svg11.dtd">
<svg version="1.1" id="Layer_1" xmlns="http://www.w3.org/2000/svg" xmlns:xlink="http://www.w3.org/1999/xlink" x="0px" y="0px"
	 width="531.542px" height="110.187px" viewBox="0 0 531.542 110.187" enable-background="new 0 0 531.542 110.187"
	 xml:space="preserve">
<path fill="#A1594B" d="M0,28.795l36.565-4.279l1.126,9.606l-25.998,3.042l1.193,10.225l22.917-2.684l1.126,9.604l-22.918,2.684
	l2.18,18.588L5.624,76.82L0,28.795z"/>
<path fill="#DBB767" d="M72.555,91.884l0.02-23.528l9.061,0.007l-0.021,23.296c-0.007,6.699,3.342,10.179,8.876,10.179
	c5.525,0.011,8.881-3.343,8.889-9.878l0.02-23.582l9.061,0.008l-0.02,23.233c-0.01,12.472-7.018,18.583-18.078,18.568
	C79.302,110.181,72.543,104.004,72.555,91.884z"/>
<path fill="#39518F" d="M141.494,34.157l7.721,0.532l16.213,24.688l1.633-23.445l8.269,0.578l-2.651,38.076l-7.129-0.502
	l-16.752-25.488l-1.686,24.211l-8.268-0.574L141.494,34.157z"/>
<path fill="#5E7663" d="M236.064,21.198l29.145-4.26l1.115,7.661l-20.718,3.029l1.187,8.146l18.263-2.673l1.116,7.655l-18.259,2.67
	l2.165,14.816l-8.418,1.227L236.064,21.198z"/>
<path fill="#D8C0AC" d="M309.018,48.652l7.828,0.166l15.737,39.195l-8.874-0.184l-3.352-8.727l-16.314-0.328l-3.71,8.578
	l-8.651-0.18L309.018,48.652z M317.484,71.544l-4.869-12.618l-5.389,12.409L317.484,71.544z"/>
<path fill="#A1594B" d="M359.918,67.15l-0.027-0.139c-2.6-13.715,5.624-26.912,20.445-29.715c9.105-1.717,15.119,0.283,20.436,3.852
	l-5.279,9.072c-4.365-2.684-8.545-4.035-13.372-3.113c-8.136,1.526-12.723,9.393-11.155,17.67l0.023,0.14
	c1.565,8.272,8.595,14.087,16.866,12.521c5.515-1.036,8.476-3.885,11.614-8.055l8.051,5.552
	c-3.964,6.252-8.854,10.602-18.159,12.363C375.158,89.983,362.535,81.012,359.918,67.15z"/>
<path fill="#39518F" d="M440.129,8.149L428.4,8.34l-0.127-7.816L460.206,0l0.128,7.824l-11.729,0.188l0.506,30.717l-8.477,0.137
	L440.129,8.149z"/>
<path fill="#DBB767" d="M497.188,81.004l5.952-6.194c3.584,3.403,7.43,5.671,12.257,6.007c3.804,0.266,6.2-1.082,6.374-3.561
	l0.01-0.121c0.164-2.35-1.201-3.662-8.137-5.961c-8.365-2.768-13.691-5.502-13.104-13.895l0.009-0.121
	c0.531-7.666,7.043-12.305,15.674-11.706c6.154,0.427,11.273,2.726,15.319,6.466l-5.313,6.665
	c-3.563-2.854-7.135-4.683-10.696-4.934c-3.565-0.247-5.553,1.254-5.693,3.31l-0.006,0.113c-0.195,2.781,1.555,3.813,8.727,6.189
	c8.418,2.832,13.033,6.246,12.52,13.611l-0.007,0.121c-0.588,8.387-7.314,12.658-16.429,12.025
	C508.25,88.566,501.945,85.889,497.188,81.004z"/>
</svg>
