<?xml version="1.0" encoding="utf-8"?>
<!-- Generator: Adobe Illustrator 16.0.0, SVG Export Plug-In . SVG Version: 6.00 Build 0)  -->
<!DOCTYPE svg PUBLIC "-//W3C//DTD SVG 1.1//EN" "http://www.w3.org/Graphics/SVG/1.1/DTD/svg11.dtd">
<svg version="1.1" id="Layer_1" xmlns="http://www.w3.org/2000/svg" xmlns:xlink="http://www.w3.org/1999/xlink" x="0px" y="0px"
	 width="413.881px" height="71.204px" viewBox="0 0 413.881 71.204" enable-background="new 0 0 413.881 71.204"
	 xml:space="preserve">
<g>
	<g>
		<path fill="#FFFFFF" stroke="#FFFFFF" stroke-width="0.25" stroke-miterlimit="10" d="M21.642,19.686h10.609l8.509,20.076
			l8.046-17.057c0.029-0.063,0.063-0.103,0.088-0.137c0.032-0.063,0.059-0.112,0.073-0.158c0.009-0.047,0.037-0.085,0.072-0.116
			c0.027-0.061,0.046-0.117,0.069-0.161c0.013-0.041,0.018-0.098,0.018-0.161c0.03-0.03,0.053-0.074,0.072-0.134
			c0.011-0.062,0.018-0.108,0.018-0.139c0.03-0.092,0.055-0.205,0.064-0.345c0.023-0.135,0.027-0.263,0.027-0.385v-1.283h11.62
			v0.599l-1.416,0.086c-0.09,0.061-0.178,0.102-0.251,0.117c-0.077,0.013-0.145,0.021-0.205,0.021
			c-0.059,0.029-0.136,0.059-0.202,0.07c-0.086,0.015-0.15,0.039-0.213,0.07c-0.062,0.027-0.131,0.059-0.207,0.089
			c-0.079,0.035-0.146,0.046-0.208,0.046c-0.059,0.032-0.128,0.063-0.2,0.09c-0.079,0.035-0.145,0.064-0.21,0.095
			c-0.061,0.028-0.118,0.055-0.184,0.087c-0.059,0.035-0.119,0.047-0.178,0.047c-0.062,0.034-0.115,0.059-0.159,0.09
			c-0.049,0.036-0.104,0.065-0.166,0.092c-0.092,0.062-0.178,0.116-0.244,0.16c-0.083,0.048-0.146,0.099-0.209,0.161
			c-0.063,0.029-0.12,0.067-0.164,0.114c-0.044,0.05-0.099,0.102-0.163,0.161c-0.123,0.119-0.242,0.229-0.36,0.319
			c-0.125,0.092-0.231,0.185-0.324,0.272c-0.09,0.094-0.168,0.186-0.228,0.278c-0.062,0.087-0.122,0.179-0.183,0.27
			c-0.062,0.126-0.121,0.242-0.161,0.349c-0.04,0.106-0.088,0.216-0.115,0.338c-0.032,0.127-0.044,0.236-0.044,0.348
			c0,0.106,0,0.219,0,0.338c0,0.126,0,0.247,0,0.37c0,0.119,0.013,0.257,0.044,0.411c0,0.119,0.005,0.265,0.024,0.434
			c0.018,0.165,0.036,0.325,0.069,0.479c0,0.032,0,0.063,0,0.087c0,0.033,0.018,0.064,0.047,0.097c0,0.03,0,0.058,0,0.087
			c0,0.033,0,0.063,0,0.094c0,0.03,0,0.063,0,0.092c0,0.028,0.015,0.057,0.046,0.09c0,0.028,0,0.06,0,0.09c0,0.032,0,0.065,0,0.094
			l1.457,19.023c0,0.122,0,0.228,0,0.321c0,0.091,0,0.166,0,0.229c0,0.09,0.011,0.167,0.031,0.23
			c0.013,0.061,0.033,0.125,0.06,0.179c0,0.276,0.026,0.503,0.046,0.686c0.039,0.186,0.068,0.354,0.099,0.507
			c0.053,0.125,0.108,0.239,0.153,0.363c0.05,0.126,0.116,0.229,0.209,0.319c0.027,0.062,0.073,0.123,0.117,0.183
			c0.05,0.061,0.083,0.124,0.115,0.186c0.059,0.055,0.112,0.121,0.159,0.182c0.044,0.062,0.084,0.123,0.112,0.182
			c0.155,0.212,0.337,0.422,0.547,0.62c0.216,0.199,0.431,0.383,0.64,0.572c0.245,0.181,0.501,0.327,0.754,0.431
			c0.264,0.109,0.531,0.179,0.8,0.209h1.835v0.639h-15.83v-0.639c0.081,0.061,0.204,0.089,0.315,0.089
			c0.123,0,0.252-0.017,0.366-0.045c0.123-0.033,0.253-0.063,0.368-0.093c0.124-0.028,0.247-0.06,0.362-0.09
			c0.278-0.063,0.547-0.136,0.808-0.229c0.26-0.091,0.512-0.198,0.752-0.321c0.249-0.121,0.467-0.258,0.661-0.41
			c0.206-0.15,0.39-0.334,0.581-0.547c0-0.031,0.003-0.053,0.018-0.073c0.017-0.013,0.041-0.035,0.066-0.066
			c0.032-0.03,0.058-0.061,0.093-0.093c0.031-0.033,0.061-0.059,0.09-0.089c0.033-0.031,0.062-0.059,0.091-0.09
			c0.063-0.095,0.128-0.205,0.187-0.349c0.059-0.132,0.108-0.264,0.137-0.386c0.063-0.15,0.092-0.318,0.108-0.503
			c0.024-0.18,0.028-0.398,0.028-0.64c0-0.058,0-0.121,0-0.182c0-0.061,0-0.123,0-0.182c-0.029-0.09-0.044-0.176-0.044-0.255
			c0-0.071,0-0.158,0-0.25c0-0.181-0.009-0.38-0.019-0.594c-0.02-0.211-0.043-0.427-0.073-0.641l-1.876-22.5h-0.048L38.102,47.308
			l-9.556-22.543h-0.139l-1.878,17.332c0,0.063,0,0.122,0,0.186c0,0.058,0,0.106,0,0.135c-0.027,0.058-0.038,0.114-0.038,0.159
			c0,0.044,0,0.099,0,0.157c-0.03,0.125-0.053,0.241-0.07,0.345c-0.017,0.108-0.025,0.223-0.025,0.34
			c-0.03,0.095-0.053,0.187-0.062,0.279c-0.021,0.094-0.031,0.164-0.031,0.228c-0.022,0.088-0.042,0.18-0.042,0.27
			c0,0.097,0,0.187,0,0.282c0,0.087-0.003,0.18-0.021,0.271c-0.016,0.094-0.021,0.18-0.021,0.272c0,0.119,0,0.23,0,0.319
			c0,0.095,0,0.181,0,0.276c0,0.089,0,0.175,0,0.252c0,0.073,0,0.143,0,0.203c0,0.094,0,0.174,0,0.254
			c0,0.076,0.011,0.144,0.042,0.204c0,0.245,0.02,0.479,0.074,0.714c0.038,0.223,0.095,0.457,0.157,0.703
			c0.06,0.219,0.143,0.433,0.251,0.669c0.104,0.219,0.221,0.431,0.338,0.612c0.247,0.368,0.534,0.683,0.868,0.959
			c0.339,0.275,0.734,0.489,1.19,0.643c0.46,0.152,0.934,0.273,1.421,0.363c0.487,0.093,0.979,0.138,1.458,0.138v0.55H19.583v-0.639
			c0.425-0.031,0.848-0.131,1.258-0.302c0.412-0.164,0.819-0.388,1.213-0.664c0.396-0.272,0.777-0.584,1.14-0.938
			c0.37-0.351,0.734-0.738,1.101-1.164c0.024-0.028,0.049-0.054,0.069-0.092c0.015-0.03,0.037-0.061,0.066-0.087
			c0.035-0.063,0.06-0.113,0.093-0.144c0.029-0.024,0.053-0.047,0.066-0.065c0.021-0.015,0.046-0.042,0.072-0.071
			c0-0.03,0.011-0.058,0.025-0.085c0.011-0.036,0.033-0.066,0.068-0.093c0.146-0.187,0.269-0.382,0.36-0.596
			c0.094-0.214,0.168-0.431,0.227-0.641c0.033-0.122,0.066-0.244,0.097-0.365c0.028-0.124,0.061-0.259,0.093-0.415
			c0-0.146,0.009-0.309,0.041-0.481c0.03-0.167,0.062-0.34,0.092-0.522l2.056-18.341c0-0.025,0-0.074,0-0.136
			c0-0.053,0.018-0.12,0.05-0.18c0-0.029,0-0.076,0-0.138c0-0.062,0-0.12,0-0.182c0-0.063,0-0.111,0-0.16
			c0-0.048,0.012-0.102,0.049-0.164c0-0.028,0-0.073,0-0.136c0-0.06,0-0.117,0-0.183c0-0.273-0.021-0.529-0.049-0.757
			c-0.032-0.228-0.076-0.412-0.138-0.568c-0.037-0.064-0.064-0.131-0.118-0.204c-0.047-0.077-0.082-0.165-0.113-0.253
			c-0.058-0.063-0.108-0.129-0.141-0.206c-0.024-0.08-0.069-0.145-0.133-0.207c-0.033-0.027-0.052-0.051-0.07-0.067
			c-0.011-0.017-0.039-0.036-0.068-0.07c-0.028-0.029-0.057-0.055-0.064-0.069c-0.015-0.012-0.026-0.035-0.026-0.067
			c-0.121-0.154-0.249-0.282-0.394-0.39c-0.135-0.104-0.263-0.203-0.383-0.297c-0.123-0.089-0.238-0.18-0.345-0.275
			c-0.107-0.09-0.207-0.183-0.294-0.275c-0.099-0.057-0.186-0.11-0.276-0.157c-0.094-0.047-0.186-0.098-0.277-0.162
			c-0.117-0.027-0.231-0.058-0.318-0.09c-0.09-0.03-0.183-0.062-0.271-0.092c-0.214-0.06-0.442-0.103-0.689-0.136
			c-0.244-0.03-0.505-0.062-0.776-0.092l-1.234-0.18V19.686z M21.503,51.244h4.068c-0.031-0.062-0.041-0.139-0.041-0.229
			c0-0.091,0-0.197,0-0.323c0-0.123,0-0.233,0-0.344c0-0.103,0-0.217,0-0.341c0-0.093,0-0.183,0-0.274c0-0.091,0-0.199,0-0.32
			c-0.032-0.09-0.047-0.189-0.047-0.297c0-0.106,0-0.203,0-0.298c-0.033-0.183-0.057-0.374-0.073-0.569
			c-0.009-0.203-0.037-0.404-0.07-0.615l-0.043-0.093c-0.184,0.426-0.398,0.813-0.637,1.165c-0.248,0.351-0.533,0.693-0.871,1.028
			c-0.305,0.306-0.633,0.588-0.983,0.845c-0.352,0.265-0.71,0.464-1.077,0.617h-0.047c-0.023,0.031-0.057,0.049-0.092,0.049h-0.043
			l-0.044,0.044v-0.093V51.244z M38.102,45.845l1.603-3.563l-9.333-21.912h-5.03v0.093c0.033,0.062,0.066,0.106,0.097,0.139
			c0.028,0.029,0.061,0.059,0.093,0.088c0.026,0.03,0.063,0.058,0.112,0.069c0.045,0.018,0.078,0.023,0.115,0.023
			c0.328,0.185,0.645,0.377,0.932,0.594c0.291,0.219,0.569,0.445,0.85,0.686c0.278,0.245,0.54,0.573,0.8,0.985
			c0.256,0.41,0.496,0.89,0.71,1.441v-0.095L38.102,45.845z M52.102,45.845c0,0.092,0,0.167,0,0.228
			c0,0.063,0.011,0.121,0.044,0.185c0,0.061,0,0.114,0,0.164c0,0.04,0,0.091,0,0.16c0,0.023,0,0.071,0,0.131c0,0.063,0,0.11,0,0.141
			c0,0.06,0,0.11,0,0.156c0,0.047,0,0.104,0,0.165c0,0.211-0.011,0.433-0.022,0.659c-0.02,0.228-0.057,0.452-0.123,0.665
			c-0.022,0.213-0.079,0.414-0.148,0.593c-0.081,0.185-0.196,0.354-0.348,0.506c-0.214,0.213-0.416,0.401-0.599,0.57
			c-0.179,0.17-0.35,0.33-0.498,0.48c-0.185,0.121-0.348,0.239-0.509,0.343c-0.146,0.109-0.298,0.192-0.454,0.254h8.649v-0.093
			c-0.671-0.306-1.23-0.624-1.67-0.962c-0.445-0.337-0.757-0.683-0.943-1.048c-0.179-0.369-0.323-0.78-0.426-1.237
			c-0.112-0.458-0.192-0.944-0.255-1.465l-1.835-21.036c0,0.028,0,0.028,0,0c0-0.03,0-0.059,0-0.091c0-0.061,0-0.114,0-0.16
			c0-0.044,0-0.083,0-0.114c-0.025-0.033-0.044-0.058-0.044-0.091c0-0.031,0-0.063,0-0.092c0-0.031,0-0.054,0-0.07
			c0-0.018,0-0.036,0-0.071c0-0.025,0-0.056,0-0.088c0-0.21,0.002-0.416,0.022-0.596c0.016-0.184,0.033-0.363,0.069-0.55
			c0.063-0.184,0.125-0.338,0.187-0.479c0.061-0.141,0.136-0.263,0.229-0.387c0.117-0.09,0.244-0.192,0.392-0.302
			c0.129-0.104,0.262-0.215,0.384-0.34c0.153-0.124,0.312-0.242,0.48-0.365c0.165-0.124,0.344-0.242,0.525-0.366
			c0.092-0.061,0.182-0.115,0.271-0.158c0.096-0.047,0.186-0.102,0.279-0.161c0.062-0.03,0.117-0.061,0.154-0.095
			c0.053-0.03,0.097-0.055,0.163-0.09c0.033-0.03,0.086-0.062,0.141-0.089c0.062-0.031,0.103-0.06,0.134-0.093v-0.185h-6.407
			L52.102,45.845z"/>
		<path fill="#FFFFFF" stroke="#FFFFFF" stroke-width="0.25" stroke-miterlimit="10" d="M89.214,20.623
			c1.968,0.811,3.773,2.019,5.42,3.637c1.617,1.615,2.836,3.4,3.661,5.352c0.82,1.95,1.232,4.056,1.232,6.313
			c0,2.255-0.412,4.342-1.232,6.259c-0.825,1.923-2.043,3.693-3.661,5.307c-1.646,1.584-3.452,2.77-5.42,3.544
			c-1.965,0.778-4.112,1.168-6.431,1.168c-2.309,0-4.466-0.39-6.447-1.168c-1.979-0.774-3.792-1.959-5.437-3.544
			c-1.643-1.614-2.875-3.384-3.688-5.307c-0.804-1.917-1.203-4.004-1.203-6.259c0-2.257,0.399-4.362,1.203-6.313
			c0.813-1.952,2.045-3.736,3.688-5.352c1.644-1.619,3.457-2.826,5.437-3.637c1.981-0.805,4.138-1.212,6.447-1.212v-0.09
			C85.102,19.382,87.249,19.818,89.214,20.623z M75.148,21.793c-1.093,0.604-2.082,1.3-2.97,2.077
			c-0.883,0.78-1.674,1.653-2.375,2.632c-0.67,0.974-1.242,1.974-1.719,2.995c-0.464,1.019-0.826,2.065-1.07,3.132
			c-0.031,0.124-0.064,0.259-0.092,0.415c-0.029,0.148-0.062,0.283-0.091,0.408c0,0.152-0.019,0.297-0.046,0.436
			c-0.036,0.136-0.046,0.283-0.046,0.432c-0.033,0.275-0.057,0.546-0.071,0.825c-0.018,0.273-0.021,0.545-0.021,0.819
			c0,0.124,0,0.265,0,0.417c0,0.15,0,0.29,0,0.41c0,0.155,0.003,0.298,0.021,0.434c0.015,0.138,0.039,0.283,0.071,0.432
			c0.063,0.307,0.108,0.605,0.158,0.897c0.053,0.29,0.117,0.583,0.206,0.89c0.274,1.065,0.655,2.113,1.144,3.132
			c0.487,1.023,1.081,2.021,1.789,2.994c0.696,0.943,1.469,1.783,2.327,2.516c0.851,0.731,1.782,1.327,2.786,1.782l0.053-0.092
			c-1.013-0.853-1.876-1.804-2.607-2.854c-0.734-1.053-1.331-2.189-1.787-3.409c-0.458-1.219-0.798-2.467-1.029-3.752
			c-0.225-1.278-0.326-2.591-0.296-3.933c0.029-1.341,0.163-2.648,0.388-3.932c0.227-1.277,0.571-2.517,1.031-3.702
			c0.458-1.192,1.044-2.313,1.759-3.365c0.715-1.053,1.564-2.035,2.542-2.948v-0.089H75.148z M77.715,21.083
			c-1.405,0.715-2.5,1.745-3.296,3.085c-0.792,1.373-1.399,3.037-1.809,4.986c-0.406,1.947-0.628,4.205-0.657,6.77
			c-0.029,2.164,0.157,4.181,0.569,6.056c0.412,1.873,1.031,3.589,1.849,5.146c0.83,1.554,1.939,2.721,3.344,3.5
			c1.395,0.774,3.104,1.151,5.12,1.119c2.071-0.031,3.819-0.435,5.231-1.212c1.422-0.78,2.512-1.944,3.273-3.5
			c0.766-1.522,1.335-3.225,1.714-5.097c0.384-1.877,0.586-3.911,0.625-6.108c0.028-2.254-0.169-4.335-0.579-6.243
			c-0.411-1.903-1.046-3.598-1.896-5.096c-0.855-1.524-1.972-2.652-3.363-3.387c-1.383-0.732-3.053-1.096-5.006-1.096v-0.091
			C80.819,19.975,79.11,20.365,77.715,21.083z M91.843,24.287c0.672,1.078,1.167,2.261,1.461,3.538
			c0.304,1.313,0.541,2.64,0.71,3.981c0.17,1.342,0.266,2.727,0.302,4.158c0,0.491-0.014,1.025-0.029,1.603
			c-0.011,0.577-0.053,1.222-0.116,1.924c-0.033,0.666-0.111,1.354-0.249,2.057c-0.139,0.698-0.327,1.415-0.566,2.15
			c-0.188,0.578-0.39,1.145-0.625,1.689c-0.227,0.55-0.496,1.098-0.8,1.646c-0.298,0.55-0.648,1.073-1.026,1.584
			c-0.386,0.498-0.821,0.98-1.305,1.432l0.135-0.043c1.064-0.608,2.013-1.295,2.811-2.058c0.817-0.761,1.495-1.586,2.041-2.471
			c0.545-0.879,0.999-1.771,1.362-2.671c0.375-0.901,0.665-1.82,0.876-2.768c0.059-0.334,0.122-0.672,0.184-1.009
			c0.062-0.33,0.108-0.666,0.135-1.003c0.061-0.335,0.097-0.677,0.113-1.025c0.019-0.355,0.046-0.696,0.066-1.037
			c0-0.028,0-0.058,0-0.09c0-0.03,0-0.063,0-0.091c0-0.06,0-0.106,0-0.135c0-0.06,0-0.122,0-0.185c0-0.059,0-0.12,0-0.18
			c0-0.274,0-0.552-0.016-0.827c-0.02-0.272-0.042-0.56-0.071-0.869c-0.031-0.271-0.068-0.556-0.112-0.843
			c-0.045-0.287-0.097-0.585-0.161-0.89c-0.212-1.098-0.545-2.168-1.014-3.2c-0.447-1.041-0.993-2.048-1.634-3.019
			c-0.677-0.977-1.418-1.826-2.248-2.542c-0.817-0.715-1.734-1.288-2.738-1.714l-0.089-0.047
			C90.311,22.22,91.17,23.201,91.843,24.287z"/>
		<path fill="#FFFFFF" stroke="#FFFFFF" stroke-width="0.25" stroke-miterlimit="10" d="M133.807,21.972
			c0.07,0.914,0.17,1.816,0.291,2.705c0.121,0.879,0.303,1.754,0.553,2.626c0.236,0.866,0.543,1.743,0.908,2.623l-0.5,0.098
			c-0.184-0.217-0.383-0.489-0.621-0.826c-0.225-0.337-0.492-0.701-0.795-1.098c-0.305-0.426-0.625-0.848-0.963-1.256
			c-0.336-0.413-0.717-0.829-1.141-1.262c-0.676-0.666-1.404-1.306-2.195-1.916c-0.797-0.612-1.684-1.204-2.656-1.785
			c-0.947-0.577-1.99-1.03-3.129-1.351c-1.145-0.32-2.354-0.494-3.637-0.525c-0.029,0-0.059,0-0.092,0c-0.031,0-0.047,0-0.072,0
			c-0.012,0-0.039,0-0.064,0c-0.031,0-0.059,0-0.088,0c-0.035,0-0.064,0-0.094,0c-1.254,0-2.447,0.251-3.588,0.754
			c-1.15,0.503-2.221,1.258-3.227,2.261c-1.008,1.008-1.766,2.481-2.266,4.418c-0.504,1.932-0.756,4.336-0.756,7.2
			c0,0.028,0,0.07,0,0.117c0,0.042,0,0.08,0,0.109c0,0.063,0,0.112,0,0.143c0,0.028,0,0.074,0,0.136c0,0.028,0,0.065,0,0.11
			c0,0.052,0,0.087,0,0.119c0,0.064,0,0.107,0,0.138c0,0.029,0,0.076,0,0.136c0,0.152,0,0.316,0,0.479c0,0.169,0,0.327,0,0.479
			c0,0.184,0.008,0.361,0.025,0.524c0.016,0.17,0.037,0.327,0.066,0.483c0,0.157,0.008,0.312,0.027,0.478
			c0.012,0.171,0.037,0.327,0.068,0.484c0.029,0.184,0.051,0.358,0.064,0.527c0.02,0.163,0.043,0.323,0.066,0.477
			c0.246,1.406,0.627,2.753,1.148,4.049c0.516,1.296,1.189,2.538,2.012,3.725c0.82,1.22,1.904,2.181,3.27,2.879
			c1.354,0.71,2.998,1.147,4.912,1.326c0.029,0,0.066,0,0.092,0c0.033,0,0.064,0,0.1,0c0.025,0,0.055,0,0.084,0
			c0.033,0,0.066,0,0.096,0c0,0.032,0.012,0.052,0.041,0.052c0.033,0,0.057,0,0.096,0c0.027,0,0.061,0,0.092,0
			c0.029,0,0.061,0,0.092,0c0.393,0,0.805-0.028,1.229-0.069c0.428-0.046,0.871-0.129,1.328-0.253
			c0.459-0.122,0.918-0.268,1.379-0.433c0.447-0.167,0.924-0.358,1.406-0.576c0.768-0.334,1.523-0.745,2.252-1.23
			c0.729-0.49,1.459-1.024,2.189-1.603c0.705-0.607,1.338-1.265,1.922-1.968c0.576-0.698,1.068-1.444,1.461-2.237l0.691,0.179
			c-0.033,0.095-0.064,0.172-0.096,0.23c-0.031,0.065-0.043,0.106-0.043,0.143c-0.031,0.056-0.061,0.111-0.094,0.153
			c-0.029,0.05-0.061,0.102-0.094,0.161c-0.059,0.09-0.117,0.187-0.178,0.277c-0.064,0.095-0.129,0.182-0.188,0.274
			c-0.643,0.944-1.416,1.85-2.336,2.716c-0.908,0.874-1.984,1.701-3.197,2.494c-1.219,0.765-2.602,1.338-4.137,1.715
			c-1.545,0.384-3.256,0.587-5.143,0.62c-2.381,0-4.531-0.39-6.447-1.168c-1.922-0.774-3.613-1.959-5.08-3.544
			c-1.492-1.614-2.639-3.309-3.449-5.073c-0.816-1.77-1.293-3.628-1.441-5.582c0-0.063,0-0.107,0-0.137c0-0.028,0-0.078,0-0.136
			c-0.033-0.032-0.041-0.067-0.041-0.116c0-0.046,0-0.082,0-0.113c0-0.062,0-0.104,0-0.136c0-0.03,0-0.081,0-0.137
			c0-0.029,0-0.069,0-0.117c0-0.041,0-0.08,0-0.113c0-0.391,0.008-0.801,0.041-1.209c0.033-0.417,0.094-0.817,0.186-1.211
			c0.063-0.427,0.148-0.855,0.273-1.285c0.119-0.422,0.236-0.853,0.365-1.274c0.51-1.437,1.238-2.816,2.168-4.141
			c0.932-1.327,2.047-2.586,3.365-3.778c1.338-1.187,2.857-2.079,4.553-2.673c1.686-0.592,3.584-0.875,5.691-0.847
			c0.336,0,0.662,0.008,0.98,0.026c0.316,0.015,0.633,0.037,0.936,0.068c0.152,0.029,0.311,0.053,0.461,0.067
			c0.152,0.018,0.299,0.023,0.459,0.023c0.119,0.032,0.256,0.053,0.408,0.071c0.156,0.016,0.303,0.036,0.453,0.066h0.047
			c0,0.031,0.02,0.044,0.053,0.044c0.02,0,0.047,0,0.066,0c0.014,0,0.035,0,0.063,0c0.152,0.032,0.295,0.059,0.414,0.07
			c0.125,0.02,0.262,0.025,0.412,0.025c0.119,0.031,0.256,0.054,0.387,0.067c0.139,0.019,0.271,0.021,0.391,0.021
			c0.273,0.034,0.566,0.053,0.867,0.071c0.314,0.016,0.615,0.025,0.92,0.025c0.365,0,0.766-0.019,1.184-0.049
			c0.428-0.032,0.871-0.075,1.326-0.136c0.463-0.063,0.961-0.145,1.512-0.256c0.555-0.103,1.127-0.232,1.74-0.383v-0.095
			C133.668,20.115,133.723,21.056,133.807,21.972z M109.588,24.329c-1.096,1.02-2,2.158-2.707,3.404
			c-0.699,1.222-1.23,2.51-1.596,3.865c-0.367,1.357-0.574,2.754-0.637,4.185c0,0.028,0,0.055,0,0.066c0,0.022,0,0.042,0,0.075
			c0,0.029,0,0.051,0,0.066c0,0.014,0,0.04,0,0.069c0,0.181,0,0.368,0,0.547c0,0.184,0.01,0.364,0.041,0.549
			c0,0.092,0,0.186,0,0.271c0,0.099,0.021,0.174,0.049,0.229c0,0.092,0.01,0.187,0.025,0.278c0.01,0.091,0.037,0.181,0.063,0.275
			c0.248,1.552,0.74,3.04,1.467,4.458c0.732,1.417,1.689,2.782,2.885,4.094c1.184,1.309,2.471,2.341,3.855,3.106
			c1.395,0.765,2.877,1.252,4.465,1.465v-0.138c-1.25-0.426-2.43-1.064-3.523-1.918c-1.094-0.856-2.113-1.923-3.061-3.204
			c-0.943-1.246-1.699-2.552-2.266-3.909c-0.564-1.353-0.938-2.752-1.123-4.183c-0.027-0.156-0.051-0.298-0.061-0.436
			c-0.021-0.136-0.023-0.268-0.023-0.389c0-0.062,0-0.129,0-0.208c0-0.074,0-0.157,0-0.249c0-0.062,0-0.131,0-0.204
			c0-0.08,0-0.145,0-0.207c0-0.033,0-0.06,0-0.092c0-0.03,0-0.062,0-0.093c0-0.032,0-0.062,0-0.089c0-0.035,0-0.062,0-0.09
			c0.057-1.406,0.189-2.7,0.383-3.889c0.199-1.186,0.494-2.257,0.887-3.203c0.375-0.975,0.773-1.858,1.199-2.656
			c0.422-0.79,0.869-1.488,1.32-2.103c0.184-0.239,0.371-0.478,0.578-0.704c0.195-0.229,0.396-0.45,0.613-0.666
			c0.182-0.18,0.365-0.367,0.545-0.545c0.188-0.187,0.363-0.336,0.555-0.46l-0.096-0.182
			C111.961,22.368,110.682,23.309,109.588,24.329z M125.998,20.738c0.58,0.306,1.119,0.604,1.635,0.889
			c0.498,0.292,0.977,0.592,1.432,0.897c0.459,0.304,0.908,0.624,1.35,0.956c0.439,0.339,0.879,0.719,1.309,1.146
			c0.061,0.032,0.111,0.067,0.158,0.111c0.043,0.048,0.082,0.087,0.115,0.118c0.057,0.061,0.111,0.11,0.156,0.136
			c0.043,0.031,0.078,0.077,0.117,0.139c0.063,0.027,0.111,0.074,0.158,0.134c0.049,0.064,0.088,0.108,0.111,0.138
			c0.066,0.064,0.123,0.113,0.166,0.158c0.047,0.05,0.084,0.101,0.111,0.163l0.088-0.141l-1.689-4.979h-5.217V20.738z"/>
		<path fill="#FFFFFF" stroke="#FFFFFF" stroke-width="0.25" stroke-miterlimit="10" d="M140.18,19.686h14.408v0.599h-1.465
			c-0.029,0.027-0.064,0.055-0.092,0.086c-0.029,0-0.053,0-0.07,0c-0.014,0-0.039,0-0.066,0s-0.064,0-0.096,0
			c-0.029,0.035-0.047,0.049-0.061,0.049c-0.021,0-0.047,0-0.072,0c-0.334,0.062-0.662,0.174-0.982,0.341
			c-0.328,0.171-0.617,0.388-0.891,0.668c-0.311,0.27-0.541,0.543-0.688,0.819c-0.154,0.277-0.246,0.566-0.271,0.87
			c0,0.031,0,0.061,0,0.089v0.046v9.102h17.188v-9.009c0-0.155-0.025-0.323-0.086-0.506c-0.063-0.18-0.156-0.366-0.275-0.546
			c-0.123-0.182-0.242-0.352-0.344-0.5c-0.107-0.157-0.242-0.291-0.395-0.415c-0.025-0.031-0.047-0.051-0.063-0.068
			c-0.018-0.017-0.039-0.036-0.068-0.069c-0.035,0-0.055-0.004-0.068-0.022c-0.014-0.015-0.037-0.039-0.074-0.07
			c-0.021-0.028-0.061-0.058-0.104-0.093c-0.051-0.032-0.109-0.059-0.168-0.087c-0.033,0-0.047-0.017-0.047-0.046h-0.041v-0.049
			h-0.051c-0.121-0.09-0.268-0.174-0.432-0.251c-0.166-0.071-0.324-0.129-0.477-0.159c-0.156-0.032-0.334-0.053-0.551-0.07
			c-0.219-0.013-0.467-0.023-0.738-0.023l-0.682-0.086v-0.599h14.408v0.599h-0.781c-0.027,0.055-0.066,0.096-0.117,0.109
			c-0.045,0.017-0.102,0.026-0.156,0.026c-0.027,0-0.064,0-0.094,0c-0.027,0-0.063,0-0.088,0c-0.182,0.033-0.352,0.074-0.502,0.136
			c-0.16,0.062-0.309,0.136-0.455,0.228c-0.162,0.09-0.295,0.19-0.439,0.299c-0.133,0.106-0.268,0.222-0.387,0.345
			c-0.029,0.028-0.053,0.054-0.066,0.088c-0.021,0.028-0.039,0.062-0.07,0.09c-0.029,0.029-0.051,0.051-0.074,0.067
			c-0.01,0.021-0.035,0.04-0.064,0.07v0.049c-0.127,0.12-0.227,0.237-0.318,0.34c-0.094,0.108-0.176,0.223-0.225,0.341
			c-0.104,0.128-0.162,0.252-0.182,0.387c-0.037,0.141-0.051,0.288-0.051,0.436v24.972c0,0.458,0.063,0.847,0.186,1.166
			c0.121,0.319,0.301,0.589,0.545,0.799c0.246,0.221,0.494,0.4,0.75,0.552c0.258,0.158,0.543,0.274,0.852,0.367
			c0.15,0.031,0.311,0.068,0.477,0.116c0.172,0.043,0.326,0.082,0.48,0.112c0.154,0.033,0.299,0.044,0.438,0.044s0.264,0,0.387,0
			v0.46h-14.084v-0.55c0.061,0.063,0.135,0.09,0.232,0.09c0.082,0,0.193-0.011,0.313-0.044c0.15,0,0.297-0.012,0.441-0.046
			c0.131-0.028,0.264-0.062,0.389-0.089c0.117,0,0.236-0.024,0.342-0.074c0.104-0.043,0.219-0.083,0.344-0.112
			c0.117-0.062,0.225-0.116,0.313-0.16c0.094-0.043,0.189-0.1,0.277-0.161c0.027,0,0.059-0.007,0.092-0.026
			c0.029-0.009,0.063-0.034,0.094-0.064c0.025-0.031,0.064-0.051,0.086-0.07c0.037-0.016,0.061-0.037,0.098-0.066
			c0.15-0.124,0.303-0.251,0.459-0.392c0.148-0.136,0.283-0.268,0.402-0.387c0.16-0.152,0.266-0.329,0.328-0.525
			c0.061-0.198,0.086-0.448,0.086-0.756V34.366h-17.188v13.719c0,0.334,0.02,0.636,0.059,0.896c0.053,0.251,0.115,0.478,0.213,0.661
			c0.088,0.21,0.193,0.396,0.297,0.547c0.104,0.152,0.221,0.292,0.344,0.415h0.047v0.044h0.041c0,0.03,0.018,0.044,0.047,0.044
			c0.158,0.125,0.33,0.225,0.529,0.298c0.195,0.076,0.43,0.145,0.705,0.205c0.246,0.031,0.521,0.06,0.824,0.093
			c0.305,0.028,0.627,0.061,0.965,0.091c0.025,0,0.063,0,0.084,0c0.031,0,0.061,0,0.1,0c0.027,0.033,0.057,0.044,0.086,0.044
			c0.025,0,0.059,0,0.092,0c0.057,0,0.127,0,0.207,0c0.072,0,0.141,0,0.203,0v0.46h-14.221v-0.55c0.059,0.063,0.121,0.09,0.182,0.09
			c0.064,0,0.125-0.011,0.184-0.044c0.063,0,0.125-0.01,0.205-0.025c0.074-0.013,0.146-0.038,0.213-0.066
			c0.361-0.093,0.705-0.23,1.021-0.413c0.32-0.184,0.631-0.395,0.936-0.643c0.303-0.238,0.543-0.489,0.691-0.751
			c0.152-0.259,0.234-0.54,0.234-0.848V23.575c0-0.396-0.107-0.784-0.301-1.165c-0.203-0.38-0.5-0.729-0.896-1.031
			c-0.396-0.334-0.826-0.581-1.281-0.729c-0.463-0.155-0.941-0.243-1.463-0.278v-0.086V19.686z M142.881,20.371l2.604,2.103v0.231
			l-0.777,0.688v25.699c0,0.215-0.029,0.39-0.092,0.525c-0.059,0.136-0.139,0.281-0.225,0.433c-0.035,0.063-0.086,0.125-0.145,0.183
			c-0.057,0.064-0.102,0.127-0.125,0.183c-0.066,0.039-0.121,0.075-0.164,0.118c-0.051,0.044-0.104,0.083-0.16,0.114
			c-0.033,0.03-0.059,0.059-0.092,0.09h-0.051c-0.053,0.031-0.129,0.067-0.201,0.117c-0.08,0.043-0.152,0.097-0.209,0.16
			c-0.096,0.027-0.184,0.07-0.273,0.112c-0.09,0.043-0.186,0.099-0.271,0.161v0.045h7.135v-0.138
			c-0.096-0.028-0.182-0.068-0.256-0.11c-0.076-0.05-0.139-0.088-0.201-0.116c-0.037-0.026-0.063-0.052-0.094-0.07
			c-0.031-0.012-0.049-0.038-0.049-0.067c-0.025,0-0.063-0.009-0.086-0.027c-0.037-0.012-0.066-0.036-0.096-0.067v-0.046h-0.051
			v-0.044c-0.027,0-0.064-0.015-0.109-0.044c-0.041-0.034-0.098-0.063-0.16-0.092c-0.027-0.031-0.057-0.053-0.066-0.073
			c-0.02-0.011-0.023-0.037-0.023-0.067c-0.031-0.031-0.057-0.051-0.072-0.069c-0.01-0.014-0.033-0.037-0.066-0.071
			c-0.125-0.088-0.24-0.201-0.34-0.336c-0.107-0.143-0.211-0.272-0.305-0.39c-0.084-0.153-0.152-0.32-0.207-0.507
			c-0.039-0.182-0.066-0.396-0.066-0.638V22.337l2.332-1.966v-0.086h-7.037V20.371z M149.834,33.91h17.188v-1.006h-17.188V33.91z
			 M165.746,20.508v0.048c0.025,0.033,0.064,0.053,0.092,0.067c0.025,0.018,0.059,0.026,0.084,0.026
			c0.035,0.027,0.064,0.051,0.098,0.068c0.029,0.014,0.055,0.037,0.09,0.067c0.063,0.032,0.131,0.068,0.207,0.116
			c0.076,0.045,0.148,0.097,0.207,0.156c0.061,0.035,0.119,0.081,0.18,0.137c0.064,0.065,0.127,0.112,0.188,0.138
			c0.055,0.063,0.117,0.114,0.182,0.162c0.063,0.042,0.121,0.104,0.182,0.161c0.152,0.122,0.297,0.238,0.434,0.339
			c0.131,0.112,0.266,0.239,0.389,0.393v0.318l-0.455,0.182v25.703c0,0.273-0.021,0.514-0.07,0.708
			c-0.039,0.2-0.102,0.371-0.16,0.527c-0.063,0.153-0.137,0.296-0.23,0.437c-0.088,0.134-0.176,0.251-0.27,0.343
			c-0.033,0.029-0.059,0.051-0.074,0.066c-0.014,0.019-0.037,0.037-0.068,0.068c-0.029,0.031-0.059,0.046-0.088,0.046v0.047h-0.053
			v0.044c-0.023,0.029-0.063,0.055-0.105,0.067c-0.049,0.016-0.102,0.041-0.164,0.072c-0.029,0.027-0.076,0.07-0.133,0.112
			c-0.068,0.043-0.131,0.099-0.186,0.161v0.045h6.584v-0.138c-0.027,0.031-0.072,0.06-0.139,0.093c-0.031,0-0.059-0.006-0.09-0.021
			c-0.031-0.019-0.059-0.042-0.094-0.073c-0.029,0-0.059-0.003-0.09-0.025c-0.031-0.011-0.043-0.035-0.043-0.065
			c-0.033,0-0.063-0.005-0.092-0.021c-0.033-0.018-0.063-0.043-0.094-0.07c-0.09-0.031-0.164-0.072-0.229-0.116
			c-0.059-0.043-0.121-0.081-0.18-0.114c-0.033-0.028-0.059-0.063-0.07-0.092c-0.014-0.029-0.039-0.06-0.066-0.088
			c-0.029,0-0.057-0.016-0.074-0.049c-0.014-0.027-0.039-0.058-0.063-0.09c-0.037,0-0.057-0.006-0.072-0.025
			c-0.01-0.011-0.043-0.037-0.07-0.067c-0.033,0-0.045-0.006-0.07-0.024c-0.012-0.01-0.025-0.038-0.025-0.069
			c-0.088-0.054-0.158-0.128-0.225-0.203c-0.059-0.078-0.119-0.178-0.182-0.3c-0.029-0.118-0.061-0.27-0.088-0.454
			c-0.035-0.181-0.047-0.41-0.047-0.688V22.337l2.381-1.873v-0.093h-7.137C165.746,20.432,165.746,20.482,165.746,20.508z"/>
		<path fill="#FFFFFF" stroke="#FFFFFF" stroke-width="0.25" stroke-miterlimit="10" d="M179.232,51.244
			c0.338,0.061,0.643,0.072,0.92,0.044c0.27-0.033,0.518-0.093,0.727-0.183c0.242-0.063,0.467-0.153,0.666-0.273
			c0.193-0.125,0.398-0.262,0.615-0.417c0.152-0.085,0.295-0.203,0.432-0.339c0.143-0.14,0.287-0.283,0.432-0.435
			c0.156-0.152,0.318-0.32,0.486-0.501c0.17-0.184,0.34-0.382,0.525-0.6c0.061-0.053,0.129-0.126,0.201-0.203
			c0.084-0.076,0.15-0.161,0.213-0.252c0.061-0.061,0.121-0.126,0.205-0.206c0.07-0.072,0.143-0.161,0.203-0.247
			c0.244-0.28,0.469-0.565,0.66-0.852c0.201-0.287,0.393-0.588,0.574-0.893c0.182-0.271,0.361-0.577,0.529-0.91
			c0.162-0.335,0.326-0.686,0.479-1.052l11.479-24.925h0.314l11.801,26.8c0.063,0.149,0.135,0.317,0.205,0.501
			c0.08,0.183,0.184,0.396,0.305,0.641c0.061,0.122,0.123,0.244,0.205,0.364c0.072,0.126,0.143,0.232,0.203,0.325
			c0.092,0.114,0.17,0.239,0.254,0.365c0.074,0.125,0.156,0.239,0.25,0.363c0.025,0.028,0.066,0.07,0.094,0.113
			c0.031,0.05,0.063,0.099,0.09,0.16c0.031,0.031,0.061,0.071,0.086,0.12c0.037,0.041,0.059,0.097,0.092,0.159
			c0,0.029,0,0.05,0,0.069c0,0.01,0.021,0.018,0.053,0.018c0,0.031,0.004,0.056,0.025,0.069c0.008,0.018,0.02,0.035,0.02,0.073
			c0.029,0.029,0.063,0.056,0.086,0.089c0.039,0.027,0.064,0.062,0.092,0.092c0.217,0.302,0.438,0.576,0.668,0.823
			c0.229,0.244,0.479,0.459,0.752,0.64c0.246,0.185,0.529,0.321,0.848,0.411c0.324,0.093,0.68,0.138,1.074,0.138l0.684-0.089v0.639
			h-16.738v-0.639h0.965c0.453,0.061,0.859,0.048,1.203-0.024c0.355-0.076,0.637-0.205,0.852-0.388
			c0.213-0.154,0.414-0.334,0.594-0.553c0.184-0.21,0.35-0.455,0.506-0.73l0.045-0.042v-0.047c0.021-0.03,0.061-0.061,0.088-0.093
			c0.121-0.148,0.23-0.311,0.322-0.478c0.09-0.167,0.156-0.348,0.186-0.527c0.061-0.184,0.098-0.363,0.113-0.55
			c0.016-0.178,0.021-0.365,0.021-0.549c0-0.148,0-0.311,0-0.48c0-0.164-0.035-0.342-0.092-0.523
			c-0.035-0.091-0.057-0.185-0.09-0.278c-0.037-0.092-0.064-0.179-0.09-0.273c-0.033-0.059-0.063-0.137-0.096-0.229
			c-0.029-0.09-0.061-0.183-0.09-0.272l-2.193-5.12h-12.666l-2.018,4.299c-0.123,0.338-0.225,0.632-0.314,0.894
			c-0.094,0.257-0.17,0.508-0.234,0.751c-0.057,0.212-0.104,0.433-0.137,0.66c-0.029,0.234-0.049,0.438-0.049,0.62
			c0,0.212,0.02,0.41,0.049,0.596c0.033,0.182,0.057,0.354,0.1,0.5c0.057,0.154,0.105,0.307,0.156,0.459
			c0.045,0.156,0.115,0.307,0.205,0.459c0.152,0.302,0.32,0.576,0.502,0.823c0.182,0.244,0.379,0.459,0.598,0.64
			c0.24,0.185,0.5,0.321,0.771,0.411c0.275,0.093,0.592,0.138,0.961,0.138l1.328-0.089v0.639h-12.303V51.244z M186.008,51.244
			c-0.031-0.125-0.061-0.254-0.07-0.389c-0.02-0.143-0.027-0.267-0.027-0.391c-0.029-0.154-0.043-0.306-0.043-0.458
			c0-0.154,0-0.307,0-0.458c0-0.183,0-0.375,0-0.567c0-0.201,0.014-0.408,0.043-0.62c0.029-0.211,0.07-0.419,0.117-0.616
			c0.041-0.199,0.08-0.408,0.113-0.619l-0.133-0.092c-0.279,0.401-0.557,0.765-0.832,1.099c-0.277,0.334-0.559,0.67-0.871,1.008
			c-0.295,0.305-0.6,0.612-0.889,0.936c-0.285,0.319-0.6,0.616-0.934,0.893v0.275H186.008z M189.982,39.491h12.025l-0.59-1.465
			H190.58L189.982,39.491z M190.846,37.478h10.297l-5.031-11.388L190.846,37.478z M196.494,25.198
			c-0.008,0.046-0.018,0.083-0.018,0.114s0,0.061,0,0.091c0,0.028,0,0.064,0,0.09c0,0.03,0,0.063,0,0.09
			c0,0.034,0.014,0.065,0.043,0.094c0,0.033,0.008,0.054,0.025,0.069c0.014,0.017,0.041,0.022,0.066,0.022
			c0,0.029,0.01,0.052,0.021,0.07c0.018,0.015,0.021,0.038,0.021,0.068l8.473,19.024c0.08,0.247,0.168,0.476,0.242,0.688
			c0.078,0.211,0.135,0.412,0.166,0.591c0.057,0.187,0.096,0.373,0.107,0.553c0.014,0.182,0.025,0.352,0.025,0.5
			c0,0.457-0.053,0.888-0.158,1.279c-0.113,0.401-0.271,0.766-0.488,1.101c-0.215,0.335-0.434,0.632-0.658,0.892
			c-0.23,0.26-0.467,0.481-0.711,0.662c-0.031,0.031-0.057,0.06-0.088,0.093h-0.047v-0.044h8.916v-0.049
			c-0.301-0.123-0.598-0.308-0.889-0.568c-0.295-0.261-0.572-0.558-0.852-0.894c-0.271-0.334-0.527-0.677-0.771-1.028
			c-0.246-0.351-0.475-0.707-0.688-1.072c-0.057-0.093-0.127-0.188-0.189-0.28c-0.055-0.091-0.117-0.195-0.178-0.319
			c-0.059-0.09-0.113-0.18-0.158-0.272c-0.047-0.095-0.102-0.18-0.16-0.276c-0.098-0.183-0.189-0.367-0.277-0.548
			c-0.088-0.185-0.166-0.368-0.227-0.55l-9.922-23h-0.186l-1.461,2.604h0.088C196.533,25.083,196.508,25.152,196.494,25.198z"/>
		<path fill="#FFFFFF" stroke="#FFFFFF" stroke-width="0.25" stroke-miterlimit="10" d="M220.621,19.686h10.613l8.504,20.076
			l8.051-17.057c0.027-0.063,0.055-0.103,0.09-0.137c0.027-0.063,0.053-0.112,0.07-0.158c0.016-0.047,0.035-0.085,0.066-0.116
			c0.025-0.061,0.051-0.117,0.066-0.161c0.016-0.041,0.025-0.098,0.025-0.161c0.027-0.03,0.051-0.074,0.064-0.134
			c0.014-0.062,0.029-0.108,0.029-0.139c0.025-0.092,0.049-0.205,0.066-0.345c0.012-0.135,0.02-0.263,0.02-0.385v-1.283h11.615
			v0.599l-1.42,0.086c-0.088,0.061-0.174,0.102-0.252,0.117c-0.076,0.013-0.143,0.021-0.199,0.021
			c-0.064,0.029-0.135,0.059-0.207,0.07c-0.082,0.015-0.146,0.039-0.205,0.07c-0.064,0.027-0.133,0.059-0.213,0.089
			c-0.072,0.035-0.143,0.046-0.197,0.046c-0.064,0.032-0.137,0.063-0.209,0.09c-0.072,0.035-0.152,0.064-0.209,0.095
			c-0.061,0.028-0.127,0.055-0.18,0.087c-0.063,0.035-0.117,0.047-0.184,0.047c-0.059,0.034-0.111,0.059-0.162,0.09
			c-0.047,0.036-0.094,0.065-0.156,0.092c-0.092,0.062-0.176,0.116-0.254,0.16c-0.074,0.048-0.146,0.099-0.203,0.161
			c-0.063,0.029-0.113,0.067-0.162,0.114c-0.041,0.05-0.1,0.102-0.16,0.161c-0.117,0.119-0.252,0.229-0.363,0.319
			c-0.123,0.092-0.229,0.185-0.324,0.272c-0.092,0.094-0.164,0.186-0.223,0.278c-0.066,0.087-0.125,0.179-0.186,0.27
			c-0.061,0.126-0.115,0.242-0.162,0.349c-0.047,0.106-0.088,0.216-0.115,0.338c-0.033,0.127-0.041,0.236-0.041,0.348
			c0,0.106,0,0.219,0,0.338c0,0.126,0,0.247,0,0.37c0,0.119,0.008,0.257,0.041,0.411c0,0.119,0.01,0.265,0.023,0.434
			c0.018,0.165,0.037,0.325,0.074,0.479c0,0.032,0,0.063,0,0.087c0,0.033,0.018,0.064,0.041,0.097c0,0.03,0,0.058,0,0.087
			c0,0.033,0,0.063,0,0.094c0,0.03,0,0.063,0,0.092c0,0.028,0.02,0.057,0.045,0.09c0,0.028,0,0.06,0,0.09c0,0.032,0,0.065,0,0.094
			l1.463,19.023c0,0.122,0,0.228,0,0.321c0,0.091,0,0.166,0,0.229c0,0.09,0.012,0.167,0.023,0.23
			c0.014,0.061,0.037,0.125,0.068,0.179c0,0.276,0.014,0.503,0.047,0.686c0.029,0.186,0.057,0.354,0.094,0.507
			c0.059,0.125,0.111,0.239,0.154,0.363c0.045,0.126,0.119,0.229,0.211,0.319c0.033,0.062,0.064,0.123,0.115,0.183
			c0.037,0.061,0.08,0.124,0.111,0.186c0.066,0.055,0.113,0.121,0.16,0.182c0.049,0.062,0.076,0.123,0.115,0.182
			c0.145,0.212,0.33,0.422,0.549,0.62c0.211,0.199,0.426,0.383,0.639,0.572c0.242,0.181,0.494,0.327,0.758,0.431
			c0.254,0.109,0.527,0.179,0.797,0.209h1.834v0.639h-15.82v-0.639c0.086,0.061,0.191,0.089,0.314,0.089
			c0.117,0,0.24-0.017,0.369-0.045c0.117-0.033,0.236-0.063,0.363-0.093c0.117-0.028,0.246-0.06,0.363-0.09
			c0.277-0.063,0.547-0.136,0.803-0.229c0.26-0.091,0.508-0.198,0.756-0.321c0.242-0.121,0.457-0.258,0.666-0.41
			c0.193-0.15,0.385-0.334,0.568-0.547c0-0.031,0-0.053,0.016-0.073c0.02-0.013,0.043-0.035,0.076-0.066
			c0.029-0.03,0.061-0.061,0.092-0.093c0.027-0.033,0.053-0.059,0.088-0.089c0.029-0.031,0.061-0.059,0.092-0.09
			c0.061-0.095,0.119-0.205,0.188-0.349c0.055-0.132,0.1-0.264,0.135-0.386c0.059-0.15,0.1-0.318,0.109-0.503
			c0.018-0.18,0.033-0.398,0.033-0.64c0-0.058,0-0.121,0-0.182c0-0.061,0-0.123,0-0.182c-0.037-0.09-0.043-0.176-0.043-0.255
			c0-0.071,0-0.158,0-0.25c0-0.181-0.016-0.38-0.037-0.594c-0.012-0.211-0.037-0.427-0.063-0.641l-1.879-22.5h-0.041l-11.344,24.604
			l-9.566-22.543h-0.125l-1.881,17.332c0,0.063,0,0.122,0,0.186c0,0.058,0,0.106,0,0.135c-0.029,0.058-0.045,0.114-0.045,0.159
			c0,0.044,0,0.099,0,0.157c-0.027,0.125-0.053,0.241-0.064,0.345c-0.023,0.108-0.023,0.223-0.023,0.34
			c-0.033,0.095-0.061,0.187-0.066,0.279c-0.018,0.094-0.025,0.164-0.025,0.228c-0.029,0.088-0.049,0.18-0.049,0.27
			c0,0.097,0,0.187,0,0.282c0,0.087-0.01,0.18-0.021,0.271c-0.02,0.094-0.025,0.18-0.025,0.272c0,0.119,0,0.23,0,0.319
			c0,0.095,0,0.181,0,0.276c0,0.089,0,0.175,0,0.252c0,0.073,0,0.143,0,0.203c0,0.094,0,0.174,0,0.254
			c0,0.076,0.014,0.144,0.047,0.204c0,0.245,0.02,0.479,0.074,0.714c0.037,0.223,0.096,0.457,0.154,0.703
			c0.057,0.219,0.145,0.433,0.256,0.669c0.1,0.219,0.217,0.431,0.342,0.612c0.24,0.368,0.533,0.683,0.869,0.959
			c0.328,0.275,0.73,0.489,1.186,0.643c0.463,0.152,0.932,0.273,1.422,0.363c0.484,0.093,0.98,0.138,1.465,0.138v0.55h-12.443
			v-0.639c0.428-0.031,0.844-0.131,1.256-0.302c0.412-0.164,0.822-0.388,1.211-0.664c0.398-0.272,0.775-0.584,1.137-0.938
			c0.371-0.351,0.744-0.738,1.109-1.164c0.035-0.028,0.047-0.054,0.07-0.092c0.01-0.03,0.037-0.061,0.07-0.087
			c0.027-0.063,0.053-0.113,0.086-0.144c0.029-0.024,0.049-0.047,0.07-0.065c0.014-0.015,0.035-0.042,0.064-0.071
			c0-0.03,0.012-0.058,0.023-0.085c0.02-0.036,0.035-0.066,0.07-0.093c0.152-0.187,0.271-0.382,0.369-0.596
			c0.086-0.214,0.17-0.431,0.229-0.641c0.029-0.122,0.053-0.244,0.086-0.365c0.033-0.124,0.061-0.259,0.09-0.415
			c0-0.146,0.016-0.309,0.049-0.481c0.027-0.167,0.064-0.34,0.092-0.522l2.059-18.341c0-0.025,0-0.074,0-0.136
			c0-0.053,0.018-0.12,0.047-0.18c0-0.029,0-0.076,0-0.138c0-0.062,0-0.12,0-0.182c0-0.063,0-0.111,0-0.16
			c0-0.048,0.012-0.102,0.041-0.164c0-0.028,0-0.073,0-0.136c0-0.06,0-0.117,0-0.183c0-0.273-0.008-0.529-0.041-0.757
			c-0.029-0.228-0.072-0.412-0.137-0.568c-0.033-0.064-0.072-0.131-0.115-0.204c-0.049-0.077-0.084-0.165-0.109-0.253
			c-0.063-0.063-0.115-0.129-0.137-0.206c-0.035-0.08-0.082-0.145-0.143-0.207c-0.033-0.027-0.059-0.051-0.063-0.067
			c-0.02-0.017-0.039-0.036-0.074-0.07c-0.033-0.029-0.049-0.055-0.07-0.069c-0.02-0.012-0.02-0.035-0.02-0.067
			c-0.123-0.154-0.26-0.282-0.391-0.39c-0.143-0.104-0.271-0.203-0.393-0.297c-0.121-0.089-0.236-0.18-0.34-0.275
			c-0.107-0.09-0.207-0.183-0.299-0.275c-0.09-0.057-0.184-0.11-0.275-0.157c-0.086-0.047-0.184-0.098-0.27-0.162
			c-0.129-0.027-0.229-0.058-0.324-0.09c-0.09-0.03-0.176-0.062-0.273-0.092c-0.213-0.06-0.439-0.103-0.686-0.136
			c-0.236-0.03-0.502-0.062-0.777-0.092l-1.234-0.18V19.686z M220.477,51.244h4.076c-0.033-0.062-0.049-0.139-0.049-0.229
			c0-0.091,0-0.197,0-0.323c0-0.123,0-0.233,0-0.344c0-0.103,0-0.217,0-0.341c0-0.093,0-0.183,0-0.274c0-0.091,0-0.199,0-0.32
			c-0.029-0.09-0.043-0.189-0.043-0.297c0-0.106,0-0.203,0-0.298c-0.033-0.183-0.053-0.374-0.064-0.569
			c-0.021-0.203-0.039-0.404-0.068-0.615l-0.051-0.093c-0.178,0.426-0.395,0.813-0.641,1.165c-0.238,0.351-0.531,0.693-0.869,1.028
			c-0.305,0.306-0.629,0.588-0.979,0.845c-0.352,0.265-0.711,0.464-1.078,0.617h-0.039c-0.031,0.031-0.063,0.049-0.092,0.049h-0.051
			l-0.053,0.044v-0.093V51.244z M237.084,45.845l1.6-3.563l-9.324-21.912h-5.031v0.093c0.029,0.062,0.053,0.106,0.086,0.139
			c0.033,0.029,0.061,0.059,0.09,0.088c0.031,0.03,0.076,0.058,0.115,0.069c0.053,0.018,0.09,0.023,0.115,0.023
			c0.34,0.185,0.645,0.377,0.945,0.594c0.285,0.219,0.572,0.445,0.842,0.686c0.27,0.245,0.539,0.573,0.801,0.985
			c0.252,0.41,0.49,0.89,0.709,1.441v-0.095L237.084,45.845z M251.072,45.845c0,0.092,0,0.167,0,0.228
			c0,0.063,0.023,0.121,0.051,0.185c0,0.061,0,0.114,0,0.164c0,0.04,0,0.091,0,0.16c0,0.023,0,0.071,0,0.131c0,0.063,0,0.11,0,0.141
			c0,0.06,0,0.11,0,0.156c0,0.047,0,0.104,0,0.165c0,0.211-0.002,0.433-0.027,0.659c-0.016,0.228-0.053,0.452-0.115,0.665
			c-0.029,0.213-0.078,0.414-0.156,0.593c-0.074,0.185-0.193,0.354-0.334,0.506c-0.223,0.213-0.422,0.401-0.604,0.57
			c-0.186,0.17-0.355,0.33-0.5,0.48c-0.184,0.121-0.35,0.239-0.502,0.343c-0.154,0.109-0.311,0.192-0.457,0.254h8.643v-0.093
			c-0.674-0.306-1.234-0.624-1.674-0.962c-0.438-0.337-0.754-0.683-0.936-1.048c-0.18-0.369-0.324-0.78-0.436-1.237
			c-0.102-0.458-0.186-0.944-0.25-1.465l-1.826-21.036c0,0.028,0,0.028,0,0c0-0.03,0-0.059,0-0.091c0-0.061,0-0.114,0-0.16
			c0-0.044,0-0.083,0-0.114c-0.035-0.033-0.047-0.058-0.047-0.091c0-0.031,0-0.063,0-0.092c0-0.031,0-0.054,0-0.07
			c0-0.018,0-0.036,0-0.071c0-0.025,0-0.056,0-0.088c0-0.21,0.006-0.416,0.016-0.596c0.021-0.184,0.041-0.363,0.078-0.55
			c0.057-0.184,0.109-0.338,0.18-0.479c0.057-0.141,0.135-0.263,0.223-0.387c0.129-0.09,0.252-0.192,0.396-0.302
			c0.137-0.104,0.26-0.215,0.391-0.34c0.145-0.124,0.314-0.242,0.473-0.365c0.174-0.124,0.35-0.242,0.527-0.366
			c0.096-0.061,0.188-0.115,0.275-0.158c0.09-0.047,0.182-0.102,0.277-0.161c0.059-0.03,0.113-0.061,0.164-0.095
			c0.043-0.03,0.096-0.055,0.154-0.09c0.021-0.03,0.082-0.062,0.139-0.089c0.063-0.031,0.104-0.06,0.135-0.093v-0.185h-6.402
			L251.072,45.845z"/>
		<path fill="#FFFFFF" stroke="#FFFFFF" stroke-width="0.25" stroke-miterlimit="10" d="M288.184,20.623
			c1.969,0.811,3.773,2.019,5.426,3.637c1.611,1.615,2.83,3.4,3.65,5.352c0.822,1.95,1.244,4.056,1.244,6.313
			c0,2.255-0.422,4.342-1.244,6.259c-0.82,1.923-2.039,3.693-3.65,5.307c-1.652,1.584-3.457,2.77-5.426,3.544
			c-1.961,0.778-4.107,1.168-6.418,1.168c-2.324,0-4.465-0.39-6.453-1.168c-1.979-0.774-3.801-1.959-5.443-3.544
			c-1.65-1.614-2.865-3.384-3.678-5.307c-0.809-1.917-1.217-4.004-1.217-6.259c0-2.257,0.408-4.362,1.217-6.313
			c0.813-1.952,2.027-3.736,3.678-5.352c1.643-1.619,3.465-2.826,5.443-3.637c1.988-0.805,4.129-1.212,6.453-1.212v-0.09
			C284.076,19.382,286.223,19.818,288.184,20.623z M274.127,21.793c-1.098,0.604-2.088,1.3-2.979,2.077
			c-0.883,0.78-1.674,1.653-2.375,2.632c-0.672,0.974-1.24,1.974-1.717,2.995c-0.463,1.019-0.828,2.065-1.074,3.132
			c-0.029,0.124-0.057,0.259-0.088,0.415c-0.035,0.148-0.064,0.283-0.094,0.408c0,0.152-0.016,0.297-0.051,0.436
			c-0.021,0.136-0.043,0.283-0.043,0.432c-0.031,0.275-0.049,0.546-0.066,0.825c-0.016,0.273-0.02,0.545-0.02,0.819
			c0,0.124,0,0.265,0,0.417c0,0.15,0,0.29,0,0.41c0,0.155,0.004,0.298,0.02,0.434c0.018,0.138,0.035,0.283,0.066,0.432
			c0.061,0.307,0.115,0.605,0.166,0.897c0.043,0.29,0.109,0.583,0.199,0.89c0.273,1.065,0.66,2.113,1.154,3.132
			c0.482,1.023,1.08,2.021,1.775,2.994c0.703,0.943,1.477,1.783,2.338,2.516c0.846,0.731,1.779,1.327,2.787,1.782l0.041-0.092
			c-1.006-0.853-1.871-1.804-2.609-2.854c-0.732-1.053-1.32-2.189-1.781-3.409c-0.457-1.219-0.797-2.467-1.029-3.752
			c-0.227-1.278-0.324-2.591-0.299-3.933c0.037-1.341,0.164-2.648,0.393-3.932c0.23-1.277,0.57-2.517,1.027-3.702
			c0.459-1.192,1.047-2.313,1.764-3.365c0.721-1.053,1.561-2.035,2.535-2.948v-0.089H274.127z M276.693,21.083
			c-1.412,0.715-2.508,1.745-3.299,3.085c-0.793,1.373-1.398,3.037-1.805,4.986c-0.42,1.947-0.639,4.205-0.666,6.77
			c-0.029,2.164,0.158,4.181,0.57,6.056c0.41,1.873,1.025,3.589,1.852,5.146c0.822,1.554,1.936,2.721,3.348,3.5
			c1.396,0.774,3.107,1.151,5.111,1.119c2.072-0.031,3.818-0.435,5.244-1.212c1.414-0.78,2.504-1.944,3.26-3.5
			c0.766-1.522,1.338-3.225,1.715-5.097c0.383-1.877,0.598-3.911,0.627-6.108c0.027-2.254-0.166-4.335-0.572-6.243
			c-0.422-1.903-1.053-3.598-1.896-5.096c-0.863-1.524-1.977-2.652-3.369-3.387c-1.385-0.732-3.057-1.096-5.008-1.096v-0.091
			C279.801,19.975,278.09,20.365,276.693,21.083z M290.813,24.287c0.676,1.078,1.164,2.261,1.463,3.538
			c0.307,1.313,0.545,2.64,0.707,3.981c0.172,1.342,0.271,2.727,0.303,4.158c0,0.491-0.01,1.025-0.025,1.603
			c-0.01,0.577-0.049,1.222-0.107,1.924c-0.037,0.666-0.123,1.354-0.25,2.057c-0.145,0.698-0.33,1.415-0.578,2.15
			c-0.186,0.578-0.383,1.145-0.617,1.689c-0.23,0.55-0.494,1.098-0.795,1.646c-0.309,0.55-0.652,1.073-1.035,1.584
			c-0.385,0.498-0.813,0.98-1.299,1.432l0.133-0.043c1.07-0.608,2.006-1.295,2.809-2.058c0.809-0.761,1.494-1.586,2.039-2.471
			c0.549-0.879,1.006-1.771,1.375-2.671c0.365-0.901,0.652-1.82,0.863-2.768c0.066-0.334,0.125-0.672,0.184-1.009
			c0.063-0.33,0.109-0.666,0.145-1.003c0.057-0.335,0.094-0.677,0.113-1.025c0.01-0.355,0.033-0.696,0.066-1.037
			c0-0.028,0-0.058,0-0.09c0-0.03,0-0.063,0-0.091c0-0.06,0-0.106,0-0.135c0-0.06,0-0.122,0-0.185c0-0.059,0-0.12,0-0.18
			c0-0.274-0.012-0.552-0.025-0.827c-0.018-0.272-0.041-0.56-0.068-0.869c-0.029-0.271-0.068-0.556-0.115-0.843
			c-0.043-0.287-0.096-0.585-0.158-0.89c-0.215-1.098-0.551-2.168-1.004-3.2c-0.463-1.041-1.01-2.048-1.648-3.019
			c-0.664-0.977-1.416-1.826-2.246-2.542c-0.818-0.715-1.734-1.288-2.742-1.714l-0.09-0.047
			C289.277,22.22,290.148,23.201,290.813,24.287z"/>
		<path fill="#FFFFFF" stroke="#FFFFFF" stroke-width="0.25" stroke-miterlimit="10" d="M332.775,21.972
			c0.076,0.914,0.168,1.816,0.297,2.705c0.119,0.879,0.301,1.754,0.549,2.626c0.24,0.866,0.551,1.743,0.918,2.623l-0.508,0.098
			c-0.182-0.217-0.389-0.489-0.615-0.826c-0.229-0.337-0.494-0.701-0.803-1.098c-0.305-0.426-0.627-0.848-0.961-1.256
			c-0.334-0.413-0.715-0.829-1.139-1.262c-0.678-0.666-1.4-1.306-2.197-1.916c-0.795-0.612-1.678-1.204-2.654-1.785
			c-0.939-0.577-1.992-1.03-3.129-1.351c-1.143-0.32-2.359-0.494-3.643-0.525c-0.029,0-0.063,0-0.086,0c-0.027,0-0.057,0-0.074,0
			c-0.01,0-0.035,0-0.059,0c-0.037,0-0.068,0-0.098,0s-0.064,0-0.09,0c-1.252,0-2.445,0.251-3.59,0.754
			c-1.146,0.503-2.217,1.258-3.227,2.261c-1.006,1.008-1.762,2.481-2.262,4.418c-0.506,1.932-0.754,4.336-0.754,7.2
			c0,0.028,0,0.07,0,0.117c0,0.042,0,0.08,0,0.109c0,0.063,0,0.112,0,0.143c0,0.028,0,0.074,0,0.136c0,0.028,0,0.065,0,0.11
			c0,0.052,0,0.087,0,0.119c0,0.064,0,0.107,0,0.138c0,0.029,0,0.076,0,0.136c0,0.152,0,0.316,0,0.479c0,0.169,0,0.327,0,0.479
			c0,0.184,0.008,0.361,0.02,0.524c0.016,0.17,0.037,0.327,0.072,0.483c0,0.157,0.004,0.312,0.018,0.478
			c0.021,0.171,0.043,0.327,0.07,0.484c0.029,0.184,0.057,0.358,0.068,0.527c0.018,0.163,0.043,0.323,0.07,0.477
			c0.244,1.406,0.621,2.753,1.143,4.049c0.52,1.296,1.191,2.538,2.014,3.725c0.824,1.22,1.91,2.181,3.27,2.879
			c1.359,0.71,2.998,1.147,4.92,1.326c0.025,0,0.059,0,0.092,0c0.027,0,0.059,0,0.088,0c0.031,0,0.053,0,0.09,0
			c0.033,0,0.059,0,0.096,0c0,0.032,0.016,0.052,0.043,0.052c0.025,0,0.061,0,0.086,0c0.035,0,0.068,0,0.094,0
			c0.029,0,0.066,0,0.1,0c0.393,0,0.799-0.028,1.223-0.069c0.438-0.046,0.875-0.129,1.33-0.253c0.465-0.122,0.918-0.268,1.373-0.433
			c0.457-0.167,0.936-0.358,1.424-0.576c0.758-0.334,1.502-0.745,2.23-1.23c0.736-0.49,1.477-1.024,2.203-1.603
			c0.697-0.607,1.344-1.265,1.92-1.968c0.582-0.698,1.066-1.444,1.465-2.237l0.682,0.179c-0.033,0.095-0.059,0.172-0.092,0.23
			c-0.029,0.065-0.039,0.106-0.039,0.143c-0.039,0.056-0.072,0.111-0.102,0.153c-0.025,0.05-0.061,0.102-0.082,0.161
			c-0.07,0.09-0.121,0.187-0.188,0.277c-0.066,0.095-0.121,0.182-0.18,0.274c-0.643,0.944-1.414,1.85-2.332,2.716
			c-0.92,0.874-1.982,1.701-3.205,2.494c-1.217,0.765-2.6,1.338-4.137,1.715c-1.545,0.384-3.254,0.587-5.145,0.62
			c-2.379,0-4.525-0.39-6.449-1.168c-1.914-0.774-3.613-1.959-5.074-3.544c-1.494-1.614-2.648-3.309-3.457-5.073
			c-0.803-1.77-1.289-3.628-1.438-5.582c0-0.063,0-0.107,0-0.137c0-0.028,0-0.078,0-0.136c-0.031-0.032-0.039-0.067-0.039-0.116
			c0-0.046,0-0.082,0-0.113c0-0.062,0-0.104,0-0.136c0-0.03,0-0.081,0-0.137c0-0.029,0-0.069,0-0.117c0-0.041,0-0.08,0-0.113
			c0-0.391,0.008-0.801,0.039-1.209c0.027-0.417,0.09-0.817,0.182-1.211c0.057-0.427,0.152-0.855,0.275-1.285
			c0.123-0.422,0.24-0.853,0.365-1.274c0.523-1.437,1.242-2.816,2.172-4.141c0.928-1.327,2.053-2.586,3.361-3.778
			c1.342-1.187,2.857-2.079,4.551-2.673c1.686-0.592,3.588-0.875,5.697-0.847c0.328,0,0.658,0.008,0.98,0.026
			c0.318,0.015,0.633,0.037,0.936,0.068c0.148,0.029,0.309,0.053,0.457,0.067c0.154,0.018,0.303,0.023,0.455,0.023
			c0.129,0.032,0.266,0.053,0.418,0.071c0.146,0.016,0.301,0.036,0.451,0.066h0.045c0,0.031,0.018,0.044,0.045,0.044
			c0.037,0,0.057,0,0.07,0c0.016,0,0.043,0,0.068,0c0.152,0.032,0.297,0.059,0.414,0.07c0.119,0.02,0.258,0.025,0.404,0.025
			c0.129,0.031,0.256,0.054,0.4,0.067c0.135,0.019,0.266,0.021,0.389,0.021c0.271,0.034,0.559,0.053,0.861,0.071
			c0.309,0.016,0.613,0.025,0.916,0.025c0.369,0,0.76-0.019,1.193-0.049c0.426-0.032,0.867-0.075,1.33-0.136
			c0.451-0.063,0.957-0.145,1.51-0.256c0.539-0.103,1.117-0.232,1.73-0.383v-0.095C332.643,20.115,332.703,21.056,332.775,21.972z
			 M308.555,24.329c-1.096,1.02-1.99,2.158-2.689,3.404c-0.707,1.222-1.24,2.51-1.602,3.865c-0.369,1.357-0.58,2.754-0.639,4.185
			c0,0.028,0,0.055,0,0.066c0,0.022,0,0.042,0,0.075c0,0.029,0,0.051,0,0.066c0,0.014,0,0.04,0,0.069c0,0.181,0,0.368,0,0.547
			c0,0.184,0.008,0.364,0.041,0.549c0,0.092,0,0.186,0,0.271c0,0.099,0.018,0.174,0.047,0.229c0,0.092,0.008,0.187,0.025,0.278
			c0.012,0.091,0.035,0.181,0.059,0.275c0.25,1.552,0.736,3.04,1.471,4.458c0.729,1.417,1.688,2.782,2.881,4.094
			c1.191,1.309,2.477,2.341,3.867,3.106c1.383,0.765,2.869,1.252,4.453,1.465v-0.138c-1.254-0.426-2.424-1.064-3.518-1.918
			c-1.1-0.856-2.119-1.923-3.07-3.204c-0.938-1.246-1.695-2.552-2.256-3.909c-0.568-1.353-0.939-2.752-1.125-4.183
			c-0.029-0.156-0.055-0.298-0.066-0.436c-0.01-0.136-0.018-0.268-0.018-0.389c0-0.062,0-0.129,0-0.208c0-0.074,0-0.157,0-0.249
			c0-0.062,0-0.131,0-0.204c0-0.08,0-0.145,0-0.207c0-0.033,0-0.06,0-0.092c0-0.03,0-0.062,0-0.093c0-0.032,0-0.062,0-0.089
			c0-0.035,0-0.062,0-0.09c0.055-1.406,0.182-2.7,0.379-3.889c0.201-1.186,0.498-2.257,0.9-3.203
			c0.361-0.975,0.756-1.858,1.189-2.656c0.426-0.79,0.861-1.488,1.326-2.103c0.172-0.239,0.367-0.478,0.57-0.704
			c0.191-0.229,0.402-0.45,0.611-0.666c0.186-0.18,0.371-0.367,0.551-0.545c0.184-0.187,0.369-0.336,0.551-0.46l-0.092-0.182
			C310.934,22.368,309.654,23.309,308.555,24.329z M324.977,20.738c0.582,0.306,1.117,0.604,1.627,0.889
			c0.496,0.292,0.98,0.592,1.439,0.897c0.457,0.304,0.9,0.624,1.348,0.956c0.438,0.339,0.869,0.719,1.305,1.146
			c0.061,0.032,0.111,0.067,0.154,0.111c0.047,0.048,0.088,0.087,0.111,0.118c0.074,0.061,0.125,0.11,0.166,0.136
			c0.049,0.031,0.084,0.077,0.117,0.139c0.061,0.027,0.115,0.074,0.156,0.134c0.051,0.064,0.084,0.108,0.115,0.138
			c0.064,0.064,0.111,0.113,0.158,0.158c0.049,0.05,0.086,0.101,0.117,0.163l0.088-0.141l-1.688-4.979h-5.215V20.738z"/>
		<path fill="#FFFFFF" stroke="#FFFFFF" stroke-width="0.25" stroke-miterlimit="10" d="M339.156,19.686h14.4v0.599h-1.465
			c-0.029,0.027-0.057,0.055-0.086,0.086c-0.031,0-0.057,0-0.066,0c-0.018,0-0.045,0-0.074,0c-0.025,0-0.057,0-0.092,0
			c-0.031,0.035-0.057,0.049-0.066,0.049c-0.018,0-0.039,0-0.063,0c-0.344,0.062-0.674,0.174-0.99,0.341
			c-0.314,0.171-0.615,0.388-0.887,0.668c-0.314,0.27-0.533,0.543-0.695,0.819c-0.145,0.277-0.236,0.566-0.268,0.87
			c0,0.031,0,0.061,0,0.089v0.046v9.102h17.197v-9.009c0-0.155-0.029-0.323-0.096-0.506c-0.061-0.18-0.156-0.366-0.266-0.546
			c-0.131-0.182-0.242-0.352-0.35-0.5c-0.109-0.157-0.236-0.291-0.389-0.415c-0.037-0.031-0.055-0.051-0.08-0.068
			c-0.008-0.017-0.033-0.036-0.059-0.069c-0.027,0-0.057-0.004-0.068-0.022c-0.016-0.015-0.041-0.039-0.068-0.07
			c-0.033-0.028-0.072-0.058-0.113-0.093c-0.055-0.032-0.1-0.059-0.158-0.087c-0.033,0-0.047-0.017-0.047-0.046h-0.045v-0.049
			h-0.049c-0.125-0.09-0.27-0.174-0.439-0.251c-0.16-0.071-0.326-0.129-0.467-0.159c-0.164-0.032-0.342-0.053-0.555-0.07
			c-0.217-0.013-0.461-0.023-0.738-0.023l-0.684-0.086v-0.599h14.404v0.599h-0.775c-0.025,0.055-0.066,0.096-0.111,0.109
			c-0.045,0.017-0.102,0.026-0.166,0.026c-0.029,0-0.053,0-0.088,0c-0.027,0-0.061,0-0.094,0c-0.186,0.033-0.344,0.074-0.494,0.136
			c-0.164,0.062-0.313,0.136-0.465,0.228c-0.15,0.09-0.289,0.19-0.434,0.299c-0.135,0.106-0.268,0.222-0.393,0.345
			c-0.029,0.028-0.053,0.054-0.057,0.088c-0.029,0.028-0.049,0.062-0.076,0.09c-0.037,0.029-0.057,0.051-0.066,0.067
			c-0.02,0.021-0.039,0.04-0.068,0.07v0.049c-0.129,0.12-0.23,0.237-0.326,0.34c-0.086,0.108-0.166,0.223-0.227,0.341
			c-0.088,0.128-0.15,0.252-0.18,0.387c-0.031,0.141-0.053,0.288-0.053,0.436v24.972c0,0.458,0.064,0.847,0.188,1.166
			c0.123,0.319,0.305,0.589,0.549,0.799c0.242,0.221,0.488,0.4,0.762,0.552c0.25,0.158,0.533,0.274,0.846,0.367
			c0.15,0.031,0.309,0.068,0.48,0.116c0.162,0.043,0.322,0.082,0.473,0.112c0.152,0.033,0.301,0.044,0.436,0.044
			c0.141,0,0.266,0,0.389,0v0.46h-14.082v-0.55c0.057,0.063,0.131,0.09,0.223,0.09c0.09,0,0.205-0.011,0.33-0.044
			c0.145,0,0.289-0.012,0.426-0.046c0.137-0.028,0.273-0.062,0.391-0.089c0.117,0,0.236-0.024,0.34-0.074
			c0.105-0.043,0.227-0.083,0.346-0.112c0.119-0.062,0.229-0.116,0.314-0.16c0.096-0.043,0.191-0.1,0.283-0.161
			c0.025,0,0.059-0.007,0.088-0.026c0.029-0.009,0.055-0.034,0.092-0.064c0.025-0.031,0.059-0.051,0.092-0.07
			c0.027-0.016,0.059-0.037,0.092-0.066c0.146-0.124,0.301-0.251,0.453-0.392c0.156-0.136,0.293-0.268,0.408-0.387
			c0.158-0.152,0.266-0.329,0.326-0.525c0.066-0.198,0.096-0.448,0.096-0.756V34.366h-17.197v13.719
			c0,0.334,0.027,0.636,0.068,0.896c0.051,0.251,0.107,0.478,0.199,0.661c0.104,0.21,0.203,0.396,0.311,0.547
			c0.098,0.152,0.219,0.292,0.336,0.415h0.049v0.044h0.043c0,0.03,0.01,0.044,0.043,0.044c0.158,0.125,0.33,0.225,0.525,0.298
			c0.205,0.076,0.439,0.145,0.709,0.205c0.248,0.031,0.52,0.06,0.834,0.093c0.295,0.028,0.615,0.061,0.957,0.091
			c0.023,0,0.053,0,0.088,0c0.029,0,0.059,0,0.086,0c0.031,0.033,0.059,0.044,0.092,0.044c0.035,0,0.066,0,0.098,0
			c0.061,0,0.127,0,0.209,0c0.072,0,0.139,0,0.197,0v0.46h-14.217v-0.55c0.059,0.063,0.113,0.09,0.178,0.09
			c0.063,0,0.123-0.011,0.188-0.044c0.055,0,0.125-0.01,0.207-0.025c0.078-0.013,0.139-0.038,0.201-0.066
			c0.367-0.093,0.707-0.23,1.029-0.413c0.328-0.184,0.637-0.395,0.939-0.643c0.309-0.238,0.527-0.489,0.686-0.751
			c0.15-0.259,0.227-0.54,0.227-0.848V23.575c0-0.396-0.094-0.784-0.295-1.165c-0.201-0.38-0.498-0.729-0.891-1.031
			c-0.402-0.334-0.83-0.581-1.283-0.729c-0.453-0.155-0.945-0.243-1.461-0.278v-0.086V19.686z M341.854,20.371l2.604,2.103v0.231
			l-0.773,0.688v25.699c0,0.215-0.031,0.39-0.094,0.525c-0.057,0.136-0.135,0.281-0.221,0.433c-0.035,0.063-0.082,0.125-0.148,0.183
			c-0.053,0.064-0.102,0.127-0.135,0.183c-0.057,0.039-0.109,0.075-0.158,0.118c-0.043,0.044-0.098,0.083-0.16,0.114
			c-0.033,0.03-0.066,0.059-0.092,0.09h-0.043c-0.064,0.031-0.127,0.067-0.211,0.117c-0.076,0.043-0.141,0.097-0.199,0.16
			c-0.098,0.027-0.184,0.07-0.279,0.112c-0.09,0.043-0.184,0.099-0.271,0.161v0.045h7.133v-0.138
			c-0.092-0.028-0.176-0.068-0.246-0.11c-0.076-0.05-0.158-0.088-0.211-0.116c-0.031-0.026-0.066-0.052-0.088-0.07
			c-0.039-0.012-0.047-0.038-0.047-0.067c-0.025,0-0.061-0.009-0.096-0.027c-0.037-0.012-0.059-0.036-0.09-0.067v-0.046h-0.045
			v-0.044c-0.031,0-0.068-0.015-0.111-0.044c-0.053-0.034-0.105-0.063-0.17-0.092c-0.027-0.031-0.053-0.053-0.063-0.073
			c-0.021-0.011-0.021-0.037-0.021-0.067c-0.031-0.031-0.057-0.051-0.07-0.069c-0.018-0.014-0.039-0.037-0.072-0.071
			c-0.117-0.088-0.232-0.201-0.342-0.336c-0.105-0.143-0.205-0.272-0.287-0.39c-0.1-0.153-0.164-0.32-0.219-0.507
			c-0.041-0.182-0.064-0.396-0.064-0.638V22.337l2.332-1.966v-0.086h-7.041V20.371z M348.805,33.91h17.197v-1.006h-17.197V33.91z
			 M364.719,20.508v0.048c0.031,0.033,0.059,0.053,0.092,0.067c0.033,0.018,0.055,0.026,0.092,0.026
			c0.029,0.027,0.059,0.051,0.09,0.068c0.027,0.014,0.063,0.037,0.094,0.067c0.057,0.032,0.131,0.068,0.205,0.116
			c0.078,0.045,0.148,0.097,0.205,0.156c0.053,0.035,0.123,0.081,0.176,0.137c0.066,0.065,0.129,0.112,0.186,0.138
			c0.066,0.063,0.129,0.114,0.186,0.162c0.057,0.042,0.121,0.104,0.188,0.161c0.148,0.122,0.285,0.238,0.428,0.339
			c0.141,0.112,0.27,0.239,0.396,0.393v0.318l-0.459,0.182v25.703c0,0.273-0.023,0.514-0.08,0.708
			c-0.037,0.2-0.084,0.371-0.145,0.527c-0.064,0.153-0.141,0.296-0.236,0.437c-0.092,0.134-0.18,0.251-0.277,0.343
			c-0.029,0.029-0.047,0.051-0.068,0.066c-0.006,0.019-0.039,0.037-0.061,0.068c-0.031,0.031-0.059,0.046-0.088,0.046v0.047h-0.061
			v0.044c-0.031,0.029-0.066,0.055-0.105,0.067c-0.051,0.016-0.104,0.041-0.166,0.072c-0.029,0.027-0.07,0.07-0.137,0.112
			c-0.061,0.043-0.117,0.099-0.18,0.161v0.045h6.59v-0.138c-0.035,0.031-0.082,0.06-0.137,0.093c-0.035,0-0.07-0.006-0.096-0.021
			c-0.031-0.019-0.066-0.042-0.096-0.073c-0.023,0-0.061-0.003-0.088-0.025c-0.035-0.011-0.047-0.035-0.047-0.065
			c-0.035,0-0.059-0.005-0.092-0.021c-0.031-0.018-0.063-0.043-0.098-0.07c-0.084-0.031-0.162-0.072-0.223-0.116
			c-0.063-0.043-0.119-0.081-0.18-0.114c-0.035-0.028-0.053-0.063-0.072-0.092c-0.012-0.029-0.033-0.06-0.066-0.088
			c-0.035,0-0.051-0.016-0.07-0.049c-0.014-0.027-0.037-0.058-0.07-0.09c-0.027,0-0.049-0.006-0.064-0.025
			c-0.016-0.011-0.037-0.037-0.068-0.067c-0.029,0-0.051-0.006-0.066-0.024c-0.016-0.01-0.025-0.038-0.025-0.069
			c-0.092-0.054-0.164-0.128-0.23-0.203c-0.061-0.078-0.123-0.178-0.18-0.3c-0.039-0.118-0.059-0.27-0.09-0.454
			c-0.033-0.181-0.045-0.41-0.045-0.688V22.337l2.373-1.873v-0.093h-7.133C364.719,20.432,364.719,20.482,364.719,20.508z"/>
		<path fill="#FFFFFF" stroke="#FFFFFF" stroke-width="0.25" stroke-miterlimit="10" d="M393.984,19.686v0.599
			c-0.209,0.055-0.426,0.096-0.641,0.109c-0.211,0.017-0.43,0.059-0.639,0.114c-0.215,0.029-0.412,0.085-0.6,0.159
			c-0.178,0.083-0.363,0.179-0.541,0.301c-0.031,0.028-0.066,0.051-0.092,0.067c-0.033,0.015-0.063,0.02-0.094,0.02
			c-0.033,0.035-0.059,0.056-0.07,0.07c-0.018,0.017-0.033,0.022-0.064,0.022c-0.123,0.092-0.258,0.198-0.396,0.32
			c-0.129,0.128-0.275,0.261-0.43,0.414c-0.123,0.153-0.209,0.337-0.279,0.548c-0.057,0.211-0.086,0.456-0.086,0.732v24.42
			c0,0.337,0.029,0.627,0.086,0.891c0.07,0.258,0.156,0.513,0.279,0.756c0.123,0.216,0.258,0.428,0.41,0.638
			c0.15,0.214,0.338,0.411,0.551,0.597c0.094,0.124,0.199,0.224,0.32,0.298c0.127,0.08,0.244,0.142,0.367,0.206
			c0.145,0.059,0.293,0.116,0.432,0.158c0.139,0.043,0.268,0.086,0.395,0.117c0.109,0.027,0.24,0.048,0.359,0.067
			c0.117,0.013,0.25,0.022,0.363,0.022c0.16,0,0.285,0,0.396,0c0.104,0,0.207,0,0.293,0v0.55h-14.088v-0.639
			c0.365,0.061,0.697,0.072,0.979,0.044c0.301-0.033,0.541-0.075,0.713-0.137c0.189-0.065,0.359-0.145,0.535-0.253
			c0.156-0.105,0.324-0.221,0.471-0.344c0.027-0.027,0.061-0.058,0.096-0.09c0.023-0.031,0.061-0.062,0.092-0.092
			c0.025,0,0.053-0.006,0.068-0.024c0.016-0.01,0.041-0.038,0.07-0.069c0.031-0.028,0.059-0.046,0.09-0.046
			c0.123-0.088,0.23-0.187,0.318-0.296c0.092-0.103,0.184-0.219,0.279-0.339c0.057-0.124,0.109-0.265,0.156-0.412
			c0.045-0.156,0.074-0.323,0.074-0.506V23.527c0-0.182-0.039-0.379-0.096-0.597c-0.061-0.21-0.152-0.427-0.273-0.637
			c-0.123-0.208-0.271-0.411-0.438-0.595c-0.166-0.182-0.342-0.352-0.525-0.505c-0.184-0.119-0.342-0.225-0.479-0.319
			c-0.143-0.09-0.268-0.152-0.391-0.182c-0.115-0.06-0.248-0.103-0.369-0.136c-0.117-0.03-0.24-0.062-0.363-0.092
			c-0.029,0-0.066,0-0.088,0c-0.033,0-0.063-0.011-0.096-0.044c-0.031,0-0.063,0-0.094,0s-0.057,0-0.092,0c-0.057,0-0.115,0-0.178,0
			s-0.129,0-0.186,0c-0.029,0-0.068,0-0.109,0c-0.049,0-0.107,0-0.166,0c-0.029,0-0.055,0-0.096,0c-0.025,0-0.035-0.014-0.035-0.049
			c-0.031,0-0.066,0-0.1,0c-0.027,0-0.057,0-0.084,0v-0.686H393.984z M383.199,20.508v0.048c0.145,0.093,0.295,0.194,0.428,0.296
			c0.139,0.104,0.268,0.239,0.383,0.389c0.16,0.124,0.303,0.252,0.439,0.386c0.139,0.144,0.268,0.285,0.391,0.437
			c0.029,0.033,0.059,0.058,0.092,0.068c0.027,0.016,0.059,0.038,0.088,0.069c0,0.031,0.016,0.056,0.041,0.072
			c0.035,0.013,0.064,0.036,0.1,0.063c0.057,0.031,0.113,0.072,0.162,0.118c0.039,0.042,0.082,0.096,0.111,0.159v0.366l-0.594,0.412
			v25.011c0,0.219-0.004,0.39-0.021,0.526c-0.02,0.138-0.059,0.287-0.121,0.436c-0.021,0.124-0.059,0.251-0.109,0.387
			c-0.043,0.143-0.102,0.253-0.164,0.346c-0.023,0.06-0.072,0.132-0.135,0.205c-0.061,0.074-0.119,0.15-0.188,0.208
			c-0.059,0.092-0.135,0.177-0.221,0.251c-0.092,0.08-0.186,0.142-0.281,0.206c-0.027,0.027-0.057,0.059-0.086,0.089
			c-0.031,0.028-0.057,0.055-0.07,0.069c-0.016,0.017-0.037,0.024-0.07,0.024c-0.029,0.031-0.063,0.054-0.092,0.068
			c-0.025,0.015-0.059,0.035-0.082,0.068v-0.044h6.939v-0.049c-0.027,0.031-0.078,0.025-0.15-0.025
			c-0.08-0.043-0.143-0.083-0.215-0.112c-0.055-0.062-0.119-0.116-0.201-0.16c-0.072-0.043-0.143-0.1-0.205-0.161
			c-0.029,0-0.053,0-0.066,0c-0.012,0-0.025-0.016-0.025-0.046c-0.027,0-0.057-0.003-0.07-0.022
			c-0.012-0.015-0.027-0.038-0.027-0.066c-0.051-0.063-0.117-0.113-0.172-0.165c-0.061-0.044-0.127-0.08-0.186-0.109
			c-0.064-0.063-0.117-0.118-0.164-0.162c-0.045-0.048-0.098-0.085-0.16-0.118c-0.033-0.027-0.049-0.055-0.066-0.089
			c-0.02-0.028-0.039-0.063-0.07-0.093c-0.029-0.027-0.057-0.057-0.066-0.092c-0.016-0.027-0.039-0.058-0.072-0.089
			c-0.027-0.063-0.068-0.139-0.107-0.229c-0.051-0.093-0.109-0.201-0.164-0.318c-0.027-0.092-0.057-0.199-0.088-0.324
			c-0.035-0.121-0.047-0.244-0.047-0.366V22.337l2.012-1.873v-0.093h-6.627C383.199,20.432,383.199,20.482,383.199,20.508z"/>
	</g>
	<rect fill="none" stroke="#FFFFFF" stroke-width="2" stroke-miterlimit="10" width="413.881" height="71.204"/>
</g>
</svg>
