<?xml version="1.0" encoding="utf-8"?>
<!-- Generator: Adobe Illustrator 16.0.0, SVG Export Plug-In . SVG Version: 6.00 Build 0)  -->
<!DOCTYPE svg PUBLIC "-//W3C//DTD SVG 1.1//EN" "http://www.w3.org/Graphics/SVG/1.1/DTD/svg11.dtd">
<svg version="1.1" id="Layer_1" xmlns="http://www.w3.org/2000/svg" xmlns:xlink="http://www.w3.org/1999/xlink" x="0px" y="0px"
	 width="220.738px" height="37.975px" viewBox="0 0 220.738 37.975" enable-background="new 0 0 220.738 37.975"
	 xml:space="preserve">
<g>
	<g>
		<path fill="#FFFFFF" stroke="#FFFFFF" stroke-width="0.25" stroke-miterlimit="10" d="M11.543,10.499h5.658l4.538,10.708
			l4.291-9.098c0.016-0.033,0.035-0.055,0.047-0.073c0.018-0.034,0.031-0.06,0.04-0.084c0.005-0.025,0.02-0.045,0.038-0.062
			c0.015-0.032,0.025-0.062,0.037-0.085c0.007-0.022,0.01-0.052,0.01-0.086c0.016-0.016,0.029-0.04,0.038-0.072
			c0.006-0.032,0.01-0.057,0.01-0.074c0.016-0.049,0.03-0.109,0.035-0.184c0.013-0.072,0.015-0.14,0.015-0.206v-0.684h6.197v0.319
			l-0.755,0.046c-0.047,0.032-0.094,0.054-0.134,0.062c-0.041,0.007-0.077,0.011-0.109,0.011c-0.032,0.016-0.073,0.032-0.108,0.038
			c-0.045,0.008-0.08,0.021-0.113,0.038c-0.033,0.015-0.07,0.032-0.11,0.048c-0.042,0.019-0.078,0.024-0.111,0.024
			c-0.031,0.017-0.068,0.033-0.107,0.048c-0.042,0.019-0.077,0.034-0.112,0.05c-0.032,0.015-0.062,0.03-0.098,0.047
			c-0.031,0.019-0.063,0.025-0.094,0.025c-0.034,0.018-0.062,0.031-0.085,0.048c-0.026,0.019-0.055,0.035-0.088,0.049
			c-0.049,0.033-0.095,0.062-0.13,0.085c-0.044,0.025-0.077,0.053-0.111,0.086c-0.033,0.016-0.063,0.036-0.086,0.061
			c-0.023,0.026-0.053,0.054-0.087,0.085c-0.065,0.063-0.129,0.123-0.192,0.17c-0.066,0.049-0.124,0.099-0.173,0.145
			c-0.048,0.05-0.089,0.099-0.121,0.148c-0.033,0.047-0.065,0.095-0.098,0.144c-0.033,0.067-0.064,0.129-0.086,0.186
			c-0.022,0.057-0.047,0.115-0.062,0.181c-0.017,0.067-0.024,0.125-0.024,0.185c0,0.057,0,0.117,0,0.181c0,0.067,0,0.131,0,0.197
			c0,0.063,0.007,0.137,0.024,0.219c0,0.063,0.002,0.142,0.012,0.231c0.01,0.088,0.02,0.174,0.038,0.256c0,0.017,0,0.033,0,0.046
			c0,0.018,0.009,0.035,0.025,0.052c0,0.016,0,0.031,0,0.047c0,0.018,0,0.033,0,0.05c0,0.016,0,0.033,0,0.049
			c0,0.015,0.008,0.03,0.024,0.048c0,0.015,0,0.032,0,0.048c0,0.017,0,0.035,0,0.05L30.2,24.451c0,0.064,0,0.121,0,0.172
			c0,0.049,0,0.088,0,0.121c0,0.049,0.006,0.09,0.017,0.123c0.007,0.033,0.017,0.066,0.032,0.096c0,0.147,0.014,0.269,0.025,0.365
			c0.02,0.1,0.036,0.189,0.052,0.271c0.029,0.066,0.058,0.127,0.082,0.193c0.027,0.067,0.062,0.121,0.111,0.17
			c0.015,0.033,0.039,0.065,0.063,0.098c0.026,0.032,0.044,0.066,0.062,0.1c0.031,0.028,0.059,0.064,0.085,0.096
			c0.023,0.033,0.045,0.066,0.06,0.098c0.083,0.113,0.179,0.225,0.292,0.33c0.115,0.106,0.229,0.205,0.341,0.305
			c0.131,0.098,0.268,0.176,0.403,0.23c0.14,0.059,0.283,0.096,0.427,0.111h0.979v0.342h-8.443V27.33
			c0.043,0.033,0.108,0.048,0.168,0.048c0.065,0,0.134-0.009,0.195-0.024c0.065-0.018,0.134-0.033,0.196-0.049
			c0.066-0.016,0.132-0.032,0.193-0.049c0.148-0.033,0.292-0.072,0.431-0.122c0.138-0.048,0.273-0.105,0.401-0.171
			c0.133-0.064,0.25-0.137,0.353-0.219c0.109-0.08,0.208-0.178,0.31-0.291c0-0.018,0.002-0.029,0.009-0.039
			c0.009-0.008,0.022-0.02,0.036-0.035c0.018-0.017,0.031-0.033,0.05-0.051c0.017-0.017,0.032-0.031,0.048-0.047
			c0.017-0.017,0.033-0.031,0.049-0.049c0.033-0.05,0.068-0.109,0.1-0.186c0.031-0.07,0.057-0.141,0.073-0.205
			c0.033-0.08,0.049-0.17,0.058-0.27c0.012-0.096,0.014-0.212,0.014-0.341c0-0.03,0-0.064,0-0.097c0-0.033,0-0.066,0-0.098
			c-0.016-0.048-0.023-0.094-0.023-0.137c0-0.037,0-0.084,0-0.133c0-0.096-0.004-0.203-0.01-0.316
			c-0.01-0.112-0.023-0.228-0.039-0.342l-1-12h-0.026l-6.049,13.122l-5.097-12.023H15.15l-1.001,9.244c0,0.033,0,0.065,0,0.099
			c0,0.031,0,0.057,0,0.072c-0.015,0.031-0.021,0.061-0.021,0.084s0,0.053,0,0.084c-0.016,0.067-0.029,0.129-0.038,0.185
			c-0.008,0.058-0.013,0.119-0.013,0.182c-0.016,0.051-0.028,0.1-0.033,0.149c-0.011,0.05-0.017,0.087-0.017,0.121
			c-0.011,0.047-0.022,0.096-0.022,0.145c0,0.051,0,0.1,0,0.15c0,0.046-0.002,0.096-0.011,0.145
			c-0.009,0.05-0.011,0.096-0.011,0.145c0,0.064,0,0.123,0,0.171c0,0.05,0,0.097,0,0.147c0,0.047,0,0.094,0,0.135
			c0,0.039,0,0.076,0,0.107c0,0.051,0,0.094,0,0.137c0,0.04,0.005,0.076,0.022,0.107c0,0.131,0.011,0.256,0.04,0.381
			c0.021,0.119,0.051,0.244,0.084,0.375c0.032,0.117,0.076,0.231,0.133,0.357c0.056,0.117,0.118,0.23,0.181,0.326
			c0.131,0.197,0.285,0.365,0.462,0.512c0.181,0.147,0.392,0.261,0.635,0.343c0.245,0.081,0.498,0.146,0.758,0.194
			s0.522,0.073,0.778,0.073v0.294h-6.631V27.33c0.227-0.016,0.452-0.069,0.671-0.16c0.22-0.088,0.437-0.207,0.646-0.354
			c0.211-0.146,0.416-0.313,0.608-0.5c0.197-0.188,0.392-0.395,0.587-0.621c0.013-0.016,0.027-0.029,0.038-0.049
			c0.007-0.017,0.02-0.033,0.035-0.047c0.019-0.033,0.033-0.061,0.05-0.076c0.016-0.014,0.028-0.025,0.035-0.035
			c0.01-0.008,0.024-0.022,0.038-0.038c0-0.017,0.006-0.03,0.014-0.046c0.005-0.019,0.018-0.035,0.036-0.049
			c0.079-0.1,0.144-0.204,0.193-0.318c0.05-0.114,0.09-0.23,0.121-0.342c0.018-0.064,0.036-0.131,0.052-0.195
			c0.015-0.065,0.032-0.138,0.05-0.221c0-0.078,0.005-0.165,0.021-0.257c0.016-0.089,0.033-0.182,0.049-0.278l1.097-9.783
			c0-0.013,0-0.039,0-0.072c0-0.028,0.009-0.063,0.026-0.096c0-0.016,0-0.041,0-0.074c0-0.033,0-0.064,0-0.097s0-0.059,0-0.085
			s0.007-0.054,0.027-0.087c0-0.015,0-0.039,0-0.072c0-0.032,0-0.063,0-0.098c0-0.146-0.011-0.282-0.027-0.404
			c-0.017-0.122-0.04-0.22-0.073-0.303c-0.02-0.034-0.035-0.07-0.063-0.109c-0.025-0.041-0.044-0.088-0.06-0.135
			c-0.032-0.033-0.058-0.069-0.075-0.109c-0.013-0.043-0.037-0.078-0.071-0.111c-0.018-0.014-0.027-0.027-0.038-0.036
			c-0.005-0.009-0.02-0.019-0.036-0.037c-0.015-0.016-0.031-0.029-0.035-0.037c-0.007-0.007-0.014-0.019-0.014-0.036
			c-0.064-0.082-0.133-0.15-0.21-0.208c-0.072-0.056-0.14-0.108-0.204-0.158c-0.065-0.047-0.127-0.096-0.184-0.146
			c-0.058-0.048-0.11-0.098-0.158-0.147c-0.052-0.03-0.099-0.059-0.147-0.084c-0.05-0.025-0.099-0.052-0.148-0.086
			c-0.063-0.015-0.123-0.031-0.169-0.048c-0.048-0.016-0.098-0.033-0.145-0.049c-0.114-0.032-0.236-0.055-0.368-0.072
			c-0.13-0.016-0.269-0.033-0.414-0.049l-0.658-0.096V10.499z M11.468,27.33h2.17c-0.017-0.032-0.021-0.074-0.021-0.122
			s0-0.104,0-0.172c0-0.065,0-0.124,0-0.184c0-0.055,0-0.116,0-0.183c0-0.049,0-0.097,0-0.146c0-0.048,0-0.106,0-0.171
			c-0.018-0.049-0.026-0.102-0.026-0.158s0-0.108,0-0.159c-0.017-0.098-0.03-0.199-0.039-0.304c-0.005-0.107-0.02-0.215-0.037-0.328
			l-0.023-0.049c-0.098,0.227-0.212,0.434-0.34,0.621c-0.132,0.187-0.284,0.369-0.463,0.548c-0.163,0.163-0.338,0.313-0.524,0.45
			c-0.188,0.142-0.379,0.248-0.575,0.33h-0.025c-0.013,0.016-0.031,0.025-0.049,0.025h-0.023l-0.024,0.023v-0.049V27.33z
			 M20.321,24.451l0.854-1.9l-4.978-11.686h-2.683v0.049c0.018,0.033,0.036,0.057,0.052,0.074c0.015,0.016,0.032,0.032,0.05,0.047
			c0.013,0.016,0.033,0.031,0.059,0.037c0.025,0.01,0.042,0.013,0.062,0.013c0.174,0.098,0.344,0.201,0.497,0.317
			c0.156,0.117,0.304,0.237,0.453,0.366c0.149,0.131,0.289,0.306,0.427,0.525c0.137,0.219,0.265,0.475,0.379,0.769v-0.051
			L20.321,24.451z M27.788,24.451c0,0.049,0,0.09,0,0.121c0,0.033,0.006,0.064,0.023,0.1c0,0.031,0,0.061,0,0.087
			c0,0.021,0,0.048,0,0.085c0,0.013,0,0.038,0,0.07c0,0.033,0,0.059,0,0.075c0,0.032,0,0.059,0,0.083c0,0.025,0,0.056,0,0.088
			c0,0.113-0.006,0.23-0.011,0.352c-0.011,0.121-0.03,0.24-0.065,0.354c-0.012,0.113-0.042,0.221-0.079,0.316
			c-0.043,0.099-0.105,0.188-0.186,0.271c-0.114,0.113-0.221,0.213-0.319,0.303c-0.096,0.092-0.186,0.176-0.265,0.256
			c-0.099,0.065-0.186,0.129-0.272,0.184c-0.078,0.059-0.159,0.103-0.242,0.135h4.613v-0.049c-0.358-0.163-0.656-0.333-0.89-0.514
			c-0.237-0.18-0.405-0.363-0.503-0.559c-0.096-0.197-0.172-0.416-0.228-0.66c-0.059-0.244-0.103-0.504-0.136-0.781l-0.979-11.219
			c0,0.015,0,0.015,0,0c0-0.016,0-0.032,0-0.049c0-0.032,0-0.061,0-0.085c0-0.023,0-0.045,0-0.061
			c-0.014-0.017-0.023-0.031-0.023-0.048c0-0.017,0-0.034,0-0.049c0-0.017,0-0.029,0-0.038c0-0.01,0-0.02,0-0.038
			c0-0.013,0-0.03,0-0.047c0-0.112,0.001-0.222,0.012-0.318c0.009-0.098,0.018-0.193,0.037-0.293c0.033-0.098,0.066-0.181,0.1-0.255
			c0.032-0.075,0.072-0.14,0.122-0.207c0.063-0.048,0.13-0.102,0.209-0.161c0.069-0.055,0.14-0.115,0.206-0.182
			c0.081-0.065,0.166-0.129,0.255-0.194c0.088-0.066,0.184-0.129,0.28-0.195c0.049-0.032,0.097-0.061,0.145-0.084
			c0.051-0.025,0.099-0.054,0.148-0.086c0.033-0.016,0.063-0.032,0.082-0.05c0.028-0.016,0.052-0.029,0.087-0.048
			c0.018-0.016,0.045-0.033,0.075-0.048c0.033-0.017,0.055-0.032,0.072-0.049v-0.099h-3.417L27.788,24.451z"/>
		<path fill="#FFFFFF" stroke="#FFFFFF" stroke-width="0.25" stroke-miterlimit="10" d="M47.581,10.999
			c1.05,0.433,2.013,1.077,2.891,1.939c0.862,0.862,1.512,1.813,1.952,2.854c0.438,1.04,0.658,2.163,0.658,3.367
			c0,1.203-0.22,2.316-0.658,3.338c-0.439,1.025-1.089,1.971-1.952,2.83c-0.878,0.846-1.841,1.479-2.891,1.891
			c-1.048,0.415-2.193,0.623-3.43,0.623c-1.231,0-2.381-0.208-3.438-0.623c-1.055-0.412-2.022-1.045-2.899-1.891
			c-0.876-0.859-1.533-1.805-1.966-2.83c-0.429-1.021-0.642-2.135-0.642-3.338c0-1.204,0.213-2.327,0.642-3.367
			c0.433-1.041,1.09-1.993,1.966-2.854c0.877-0.863,1.844-1.507,2.899-1.939c1.057-0.429,2.207-0.646,3.438-0.646v-0.048
			C45.387,10.337,46.533,10.57,47.581,10.999z M40.079,11.623c-0.583,0.322-1.11,0.693-1.583,1.107
			c-0.471,0.416-0.893,0.882-1.267,1.404c-0.357,0.52-0.662,1.053-0.917,1.597c-0.247,0.543-0.44,1.102-0.57,1.67
			c-0.017,0.066-0.034,0.138-0.049,0.221c-0.016,0.079-0.033,0.151-0.049,0.218c0,0.081-0.009,0.159-0.024,0.233
			c-0.02,0.072-0.025,0.15-0.025,0.23c-0.018,0.147-0.03,0.292-0.038,0.44c-0.01,0.146-0.012,0.291-0.012,0.437
			c0,0.066,0,0.141,0,0.222c0,0.08,0,0.155,0,0.219c0,0.083,0.002,0.159,0.012,0.231c0.007,0.074,0.02,0.15,0.038,0.23
			c0.033,0.164,0.058,0.322,0.084,0.479c0.028,0.154,0.063,0.311,0.109,0.475c0.146,0.568,0.35,1.127,0.611,1.67
			c0.259,0.547,0.576,1.078,0.954,1.598c0.371,0.502,0.783,0.951,1.241,1.342c0.453,0.39,0.95,0.707,1.485,0.95l0.028-0.049
			c-0.54-0.455-1.001-0.962-1.391-1.522c-0.392-0.561-0.709-1.168-0.953-1.817c-0.244-0.65-0.426-1.315-0.549-2.001
			c-0.12-0.682-0.173-1.382-0.158-2.098s0.086-1.413,0.207-2.097c0.122-0.682,0.305-1.343,0.55-1.975
			c0.245-0.635,0.557-1.233,0.938-1.794c0.381-0.562,0.834-1.085,1.355-1.573v-0.047H40.079z M41.448,11.245
			c-0.749,0.381-1.333,0.93-1.757,1.645c-0.423,0.732-0.747,1.62-0.965,2.66c-0.217,1.039-0.335,2.243-0.351,3.61
			c-0.016,1.154,0.084,2.23,0.304,3.23c0.219,0.998,0.549,1.914,0.986,2.744c0.442,0.828,1.035,1.451,1.783,1.866
			c0.745,0.413,1.656,0.614,2.73,0.597c1.105-0.016,2.038-0.231,2.791-0.646c0.758-0.416,1.34-1.037,1.746-1.866
			c0.408-0.812,0.712-1.72,0.914-2.718c0.206-1.002,0.313-2.086,0.333-3.258c0.015-1.202-0.09-2.312-0.309-3.33
			c-0.219-1.015-0.557-1.919-1.011-2.718c-0.456-0.813-1.051-1.415-1.794-1.807c-0.737-0.39-1.628-0.585-2.67-0.585v-0.048
			C43.104,10.653,42.192,10.861,41.448,11.245z M48.983,12.953c0.359,0.575,0.622,1.206,0.78,1.887
			c0.162,0.701,0.288,1.408,0.379,2.123c0.09,0.716,0.141,1.455,0.161,2.218c0,0.262-0.008,0.547-0.015,0.855
			c-0.006,0.308-0.028,0.651-0.062,1.026c-0.018,0.355-0.06,0.723-0.133,1.097c-0.075,0.372-0.175,0.755-0.302,1.147
			c-0.101,0.309-0.208,0.61-0.333,0.9c-0.121,0.293-0.264,0.586-0.426,0.878c-0.16,0.294-0.346,0.573-0.547,0.845
			c-0.206,0.266-0.438,0.523-0.696,0.764l0.072-0.023c0.567-0.324,1.074-0.69,1.5-1.098c0.435-0.405,0.797-0.846,1.087-1.317
			c0.291-0.47,0.534-0.944,0.727-1.425c0.2-0.48,0.354-0.971,0.468-1.477c0.031-0.178,0.064-0.357,0.097-0.537
			c0.033-0.176,0.058-0.355,0.073-0.535c0.032-0.179,0.052-0.361,0.06-0.547c0.01-0.189,0.024-0.371,0.036-0.553
			c0-0.015,0-0.031,0-0.048c0-0.016,0-0.033,0-0.048c0-0.032,0-0.057,0-0.072c0-0.032,0-0.065,0-0.099c0-0.032,0-0.064,0-0.096
			c0-0.146,0-0.294-0.009-0.441c-0.01-0.145-0.022-0.298-0.038-0.463c-0.017-0.145-0.036-0.296-0.06-0.45s-0.051-0.313-0.086-0.475
			c-0.113-0.586-0.291-1.156-0.541-1.707c-0.239-0.555-0.53-1.092-0.872-1.61c-0.361-0.521-0.757-0.974-1.199-1.356
			c-0.435-0.381-0.924-0.687-1.46-0.914l-0.048-0.025C48.166,11.851,48.624,12.374,48.983,12.953z"/>
		<path fill="#FFFFFF" stroke="#FFFFFF" stroke-width="0.25" stroke-miterlimit="10" d="M71.363,11.718
			c0.039,0.488,0.091,0.969,0.156,1.443c0.065,0.469,0.162,0.936,0.295,1.401c0.126,0.461,0.29,0.93,0.485,1.399l-0.268,0.052
			c-0.098-0.115-0.204-0.26-0.331-0.44c-0.121-0.18-0.263-0.374-0.424-0.586c-0.162-0.227-0.334-0.452-0.514-0.67
			c-0.178-0.22-0.382-0.442-0.608-0.673c-0.36-0.355-0.749-0.697-1.17-1.021c-0.425-0.327-0.897-0.643-1.417-0.952
			c-0.506-0.308-1.062-0.549-1.67-0.72c-0.609-0.171-1.255-0.264-1.939-0.28c-0.015,0-0.031,0-0.048,0c-0.017,0-0.026,0-0.039,0
			c-0.006,0-0.02,0-0.035,0c-0.016,0-0.031,0-0.047,0c-0.018,0-0.034,0-0.05,0c-0.668,0-1.305,0.134-1.913,0.402
			c-0.613,0.269-1.183,0.671-1.721,1.206c-0.538,0.538-0.941,1.324-1.208,2.356c-0.268,1.03-0.403,2.313-0.403,3.84
			c0,0.015,0,0.037,0,0.063c0,0.022,0,0.042,0,0.058c0,0.034,0,0.06,0,0.076c0,0.015,0,0.04,0,0.073c0,0.015,0,0.035,0,0.059
			c0,0.028,0,0.047,0,0.063c0,0.034,0,0.057,0,0.073c0,0.016,0,0.041,0,0.073c0,0.081,0,0.168,0,0.256c0,0.09,0,0.174,0,0.255
			c0,0.098,0.004,0.192,0.014,0.279c0.008,0.091,0.02,0.175,0.035,0.257c0,0.084,0.004,0.166,0.015,0.256
			c0.007,0.09,0.02,0.174,0.036,0.258c0.016,0.098,0.027,0.191,0.036,0.281c0.009,0.087,0.022,0.172,0.035,0.254
			c0.131,0.75,0.333,1.469,0.612,2.16c0.275,0.69,0.634,1.354,1.074,1.986c0.438,0.65,1.016,1.162,1.743,1.535
			c0.722,0.379,1.599,0.611,2.621,0.707c0.016,0,0.035,0,0.049,0c0.018,0,0.034,0,0.053,0c0.014,0,0.029,0,0.045,0
			c0.018,0,0.035,0,0.051,0c0,0.018,0.006,0.027,0.022,0.027c0.018,0,0.031,0,0.051,0c0.015,0,0.033,0,0.049,0s0.033,0,0.049,0
			c0.21,0,0.43-0.014,0.656-0.036c0.228-0.024,0.464-0.069,0.708-0.136c0.244-0.064,0.489-0.143,0.735-0.23
			c0.238-0.089,0.492-0.191,0.75-0.307c0.409-0.179,0.813-0.398,1.202-0.656c0.389-0.262,0.778-0.547,1.167-0.855
			c0.376-0.324,0.714-0.674,1.025-1.05c0.308-0.372,0.571-0.771,0.78-1.192l0.368,0.095c-0.018,0.051-0.034,0.092-0.051,0.123
			c-0.016,0.034-0.022,0.057-0.022,0.076c-0.018,0.03-0.033,0.06-0.051,0.082c-0.016,0.026-0.033,0.054-0.049,0.085
			c-0.031,0.049-0.063,0.1-0.096,0.148c-0.035,0.051-0.069,0.097-0.1,0.146c-0.343,0.504-0.755,0.986-1.247,1.448
			c-0.484,0.466-1.057,0.907-1.705,1.33c-0.65,0.407-1.388,0.714-2.206,0.915c-0.824,0.205-1.736,0.313-2.743,0.33
			c-1.27,0-2.417-0.208-3.439-0.623c-1.025-0.412-1.927-1.045-2.708-1.891c-0.796-0.859-1.407-1.764-1.84-2.705
			c-0.435-0.943-0.689-1.936-0.769-2.977c0-0.034,0-0.057,0-0.073c0-0.015,0-0.042,0-0.073c-0.018-0.017-0.022-0.036-0.022-0.062
			c0-0.024,0-0.043,0-0.061c0-0.033,0-0.056,0-0.073c0-0.016,0-0.043,0-0.073c0-0.016,0-0.037,0-0.063c0-0.022,0-0.042,0-0.061
			c0-0.208,0.004-0.427,0.022-0.645c0.018-0.222,0.05-0.436,0.099-0.646c0.033-0.228,0.079-0.456,0.146-0.685
			c0.063-0.225,0.125-0.455,0.194-0.68c0.272-0.766,0.66-1.502,1.157-2.208c0.497-0.708,1.091-1.379,1.794-2.015
			c0.713-0.633,1.524-1.108,2.428-1.425c0.9-0.315,1.913-0.467,3.035-0.452c0.18,0,0.354,0.004,0.523,0.014
			c0.169,0.008,0.338,0.02,0.5,0.036c0.081,0.016,0.165,0.028,0.246,0.036c0.081,0.01,0.16,0.012,0.245,0.012
			c0.063,0.018,0.136,0.028,0.217,0.038c0.084,0.008,0.162,0.019,0.242,0.035h0.025c0,0.017,0.01,0.023,0.028,0.023
			c0.011,0,0.026,0,0.036,0c0.008,0,0.02,0,0.033,0c0.082,0.017,0.157,0.031,0.221,0.037c0.067,0.01,0.139,0.013,0.22,0.013
			c0.063,0.017,0.136,0.029,0.206,0.036c0.075,0.01,0.145,0.011,0.208,0.011c0.146,0.018,0.302,0.028,0.462,0.038
			c0.168,0.008,0.328,0.013,0.49,0.013c0.196,0,0.409-0.01,0.631-0.026c0.229-0.017,0.465-0.04,0.708-0.072
			c0.247-0.034,0.512-0.077,0.805-0.136c0.296-0.055,0.602-0.124,0.929-0.205v-0.051C71.29,10.728,71.319,11.23,71.363,11.718z
			 M58.447,12.975c-0.584,0.544-1.067,1.151-1.443,1.816c-0.373,0.651-0.656,1.338-0.852,2.062
			c-0.195,0.724-0.306,1.469-0.339,2.232c0,0.015,0,0.029,0,0.035c0,0.012,0,0.022,0,0.04c0,0.016,0,0.027,0,0.035s0,0.021,0,0.037
			c0,0.096,0,0.196,0,0.292c0,0.098,0.005,0.194,0.022,0.293c0,0.049,0,0.099,0,0.145c0,0.052,0.011,0.093,0.025,0.123
			c0,0.049,0.006,0.1,0.013,0.148c0.006,0.049,0.02,0.097,0.033,0.146c0.133,0.828,0.396,1.621,0.783,2.378
			c0.39,0.756,0.9,1.483,1.538,2.183c0.631,0.699,1.318,1.249,2.056,1.657c0.744,0.407,1.535,0.667,2.381,0.781v-0.073
			c-0.667-0.228-1.296-0.568-1.878-1.023c-0.584-0.457-1.128-1.025-1.633-1.709c-0.503-0.664-0.907-1.361-1.208-2.084
			c-0.301-0.723-0.5-1.469-0.6-2.231c-0.013-0.083-0.026-0.159-0.032-0.232c-0.01-0.073-0.013-0.143-0.013-0.208
			c0-0.033,0-0.069,0-0.111c0-0.04,0-0.084,0-0.133c0-0.033,0-0.07,0-0.109c0-0.042,0-0.077,0-0.11c0-0.017,0-0.032,0-0.049
			c0-0.016,0-0.032,0-0.049s0-0.033,0-0.047c0-0.019,0-0.033,0-0.048c0.032-0.75,0.102-1.44,0.205-2.074
			c0.106-0.633,0.263-1.204,0.473-1.708c0.2-0.52,0.412-0.991,0.639-1.417c0.225-0.421,0.464-0.793,0.704-1.121
			c0.098-0.127,0.197-0.255,0.308-0.375c0.104-0.122,0.212-0.24,0.328-0.355c0.097-0.096,0.195-0.196,0.291-0.291
			c0.101-0.1,0.194-0.179,0.296-0.245l-0.051-0.097C59.713,11.93,59.03,12.431,58.447,12.975z M67.199,11.061
			c0.31,0.163,0.597,0.322,0.871,0.474c0.265,0.155,0.521,0.316,0.764,0.478c0.245,0.162,0.485,0.333,0.721,0.51
			c0.234,0.181,0.468,0.383,0.697,0.611c0.032,0.017,0.059,0.036,0.083,0.06c0.024,0.025,0.045,0.046,0.063,0.063
			c0.03,0.032,0.059,0.059,0.083,0.072c0.023,0.017,0.042,0.041,0.063,0.074c0.033,0.015,0.06,0.04,0.084,0.072
			c0.026,0.034,0.047,0.058,0.06,0.074c0.036,0.034,0.065,0.06,0.088,0.084c0.025,0.026,0.045,0.054,0.059,0.087l0.048-0.075
			l-0.901-2.656h-2.782V11.061z"/>
		<path fill="#FFFFFF" stroke="#FFFFFF" stroke-width="0.25" stroke-miterlimit="10" d="M74.762,10.499h7.685v0.319h-0.782
			c-0.016,0.015-0.034,0.029-0.049,0.046c-0.016,0-0.029,0-0.038,0c-0.007,0-0.021,0-0.035,0c-0.015,0-0.035,0-0.051,0
			c-0.016,0.019-0.026,0.026-0.032,0.026c-0.012,0-0.026,0-0.04,0c-0.178,0.033-0.352,0.093-0.523,0.182
			c-0.174,0.091-0.329,0.207-0.476,0.356c-0.165,0.144-0.288,0.29-0.366,0.437c-0.082,0.147-0.131,0.302-0.146,0.464
			c0,0.017,0,0.033,0,0.047v0.025v4.854h9.167v-4.805c0-0.083-0.013-0.172-0.046-0.27c-0.033-0.096-0.083-0.195-0.146-0.292
			c-0.066-0.097-0.129-0.188-0.184-0.267c-0.057-0.083-0.128-0.155-0.209-0.221c-0.014-0.017-0.025-0.027-0.033-0.036
			c-0.01-0.009-0.022-0.019-0.038-0.037c-0.019,0-0.028-0.002-0.036-0.012c-0.007-0.008-0.02-0.021-0.04-0.038
			c-0.012-0.015-0.031-0.031-0.056-0.049c-0.026-0.017-0.057-0.032-0.088-0.047c-0.018,0-0.025-0.009-0.025-0.024h-0.022v-0.026
			h-0.028c-0.064-0.048-0.142-0.093-0.23-0.134c-0.087-0.038-0.172-0.069-0.253-0.085c-0.083-0.017-0.178-0.028-0.294-0.037
			c-0.115-0.007-0.248-0.012-0.394-0.012l-0.363-0.046v-0.319h7.683v0.319h-0.416c-0.015,0.029-0.035,0.051-0.063,0.059
			c-0.023,0.009-0.053,0.014-0.083,0.014c-0.015,0-0.034,0-0.05,0c-0.015,0-0.033,0-0.047,0c-0.097,0.018-0.187,0.04-0.268,0.073
			c-0.085,0.033-0.164,0.072-0.242,0.122c-0.086,0.048-0.158,0.102-0.234,0.16c-0.072,0.057-0.143,0.118-0.206,0.184
			c-0.016,0.015-0.029,0.029-0.036,0.047c-0.011,0.015-0.021,0.033-0.038,0.048c-0.016,0.016-0.027,0.027-0.04,0.036
			c-0.005,0.011-0.019,0.021-0.033,0.037v0.026c-0.068,0.063-0.122,0.126-0.171,0.181c-0.05,0.058-0.092,0.119-0.119,0.182
			c-0.055,0.068-0.086,0.134-0.098,0.207c-0.019,0.075-0.026,0.153-0.026,0.232v13.319c0,0.244,0.033,0.451,0.099,0.621
			c0.065,0.17,0.161,0.314,0.291,0.426c0.131,0.118,0.264,0.213,0.401,0.295c0.136,0.084,0.289,0.146,0.453,0.195
			c0.081,0.017,0.167,0.036,0.254,0.063c0.092,0.022,0.174,0.043,0.256,0.059c0.083,0.018,0.16,0.023,0.233,0.023
			c0.074,0,0.141,0,0.207,0v0.246h-7.511v-0.294c0.031,0.034,0.073,0.048,0.124,0.048c0.043,0,0.103-0.006,0.166-0.023
			c0.081,0,0.16-0.006,0.237-0.024c0.069-0.015,0.14-0.032,0.207-0.048c0.063,0,0.125-0.013,0.182-0.039
			c0.056-0.023,0.117-0.045,0.184-0.06c0.062-0.033,0.119-0.062,0.167-0.085c0.05-0.023,0.101-0.054,0.147-0.086
			c0.015,0,0.031-0.004,0.049-0.014c0.016-0.005,0.033-0.019,0.051-0.035c0.014-0.016,0.033-0.027,0.045-0.037
			c0.02-0.008,0.032-0.02,0.052-0.035c0.081-0.064,0.162-0.133,0.245-0.209c0.079-0.072,0.151-0.143,0.215-0.206
			c0.085-0.081,0.142-0.175,0.175-0.28s0.046-0.239,0.046-0.402v-7.513h-9.167v7.317c0,0.178,0.011,0.338,0.032,0.477
			c0.027,0.135,0.062,0.256,0.113,0.354c0.047,0.111,0.102,0.211,0.158,0.291c0.055,0.082,0.117,0.156,0.184,0.221h0.024v0.023
			h0.022c0,0.017,0.009,0.024,0.024,0.024c0.084,0.067,0.177,0.12,0.283,0.159c0.104,0.041,0.229,0.077,0.375,0.109
			c0.131,0.016,0.278,0.031,0.44,0.049c0.162,0.016,0.334,0.033,0.514,0.049c0.014,0,0.033,0,0.044,0c0.018,0,0.032,0,0.054,0
			c0.013,0.018,0.03,0.023,0.045,0.023c0.014,0,0.032,0,0.049,0c0.03,0,0.068,0,0.11,0c0.039,0,0.076,0,0.109,0v0.246h-7.585v-0.294
			c0.031,0.034,0.064,0.048,0.098,0.048s0.066-0.006,0.097-0.023c0.033,0,0.066-0.005,0.11-0.013
			c0.039-0.007,0.078-0.021,0.113-0.036c0.192-0.049,0.375-0.122,0.545-0.22c0.171-0.098,0.337-0.21,0.499-0.343
			c0.162-0.127,0.29-0.261,0.368-0.4c0.082-0.139,0.125-0.288,0.125-0.452V12.573c0-0.211-0.057-0.418-0.16-0.622
			c-0.108-0.203-0.267-0.389-0.478-0.55c-0.212-0.178-0.44-0.31-0.684-0.389c-0.247-0.083-0.502-0.129-0.78-0.148v-0.046V10.499z
			 M76.203,10.865l1.389,1.121v0.123l-0.415,0.367v13.706c0,0.114-0.016,0.208-0.049,0.28c-0.032,0.072-0.074,0.15-0.119,0.23
			c-0.02,0.034-0.046,0.066-0.077,0.098c-0.031,0.035-0.055,0.068-0.067,0.098c-0.036,0.021-0.064,0.04-0.088,0.063
			c-0.026,0.023-0.055,0.045-0.085,0.061c-0.017,0.017-0.03,0.032-0.048,0.049h-0.027c-0.028,0.017-0.069,0.035-0.107,0.063
			c-0.043,0.023-0.081,0.052-0.112,0.085c-0.05,0.015-0.098,0.038-0.146,0.06c-0.048,0.023-0.099,0.053-0.145,0.086v0.024h3.805
			v-0.073c-0.051-0.016-0.097-0.037-0.136-0.059c-0.042-0.027-0.075-0.048-0.108-0.063c-0.02-0.014-0.033-0.027-0.05-0.037
			c-0.017-0.006-0.026-0.021-0.026-0.036c-0.013,0-0.033-0.005-0.045-0.015c-0.02-0.006-0.036-0.019-0.051-0.035v-0.024h-0.027
			v-0.024c-0.015,0-0.034-0.008-0.058-0.023c-0.022-0.018-0.053-0.033-0.086-0.049c-0.015-0.016-0.03-0.027-0.036-0.038
			c-0.01-0.006-0.012-0.02-0.012-0.036c-0.017-0.016-0.03-0.027-0.039-0.036c-0.005-0.007-0.018-0.021-0.035-0.038
			c-0.066-0.047-0.128-0.107-0.182-0.18c-0.057-0.076-0.112-0.145-0.162-0.207c-0.044-0.082-0.081-0.172-0.11-0.271
			c-0.021-0.097-0.035-0.211-0.035-0.34V11.913l1.244-1.048v-0.046h-3.754V10.865z M79.911,18.085h9.167v-0.537h-9.167V18.085z
			 M88.397,10.938v0.026c0.014,0.018,0.035,0.028,0.05,0.036c0.014,0.01,0.031,0.014,0.045,0.014
			c0.019,0.015,0.034,0.027,0.052,0.036c0.016,0.007,0.029,0.02,0.048,0.036c0.033,0.017,0.07,0.036,0.11,0.062
			c0.04,0.024,0.079,0.051,0.111,0.083c0.031,0.019,0.063,0.043,0.095,0.073c0.035,0.035,0.067,0.06,0.101,0.074
			c0.03,0.034,0.063,0.061,0.097,0.086c0.033,0.022,0.065,0.055,0.098,0.086c0.08,0.065,0.158,0.126,0.23,0.181
			c0.071,0.06,0.142,0.127,0.208,0.209v0.169l-0.243,0.097v13.708c0,0.146-0.012,0.274-0.038,0.378
			c-0.021,0.106-0.054,0.198-0.085,0.281c-0.033,0.081-0.073,0.157-0.123,0.233c-0.047,0.071-0.094,0.133-0.144,0.182
			c-0.018,0.016-0.031,0.027-0.039,0.036c-0.008,0.01-0.021,0.02-0.037,0.036c-0.016,0.017-0.031,0.025-0.047,0.025v0.024h-0.028
			v0.023c-0.013,0.016-0.033,0.03-0.056,0.036c-0.027,0.008-0.055,0.021-0.088,0.038c-0.016,0.015-0.041,0.038-0.071,0.06
			c-0.036,0.023-0.069,0.053-0.099,0.086v0.024h3.512v-0.073c-0.015,0.016-0.04,0.031-0.075,0.049c-0.016,0-0.031-0.003-0.048-0.01
			c-0.016-0.011-0.031-0.023-0.049-0.039c-0.016,0-0.032-0.002-0.048-0.014c-0.017-0.006-0.023-0.019-0.023-0.035
			c-0.018,0-0.033-0.002-0.049-0.01c-0.018-0.01-0.033-0.023-0.05-0.038c-0.048-0.017-0.087-0.038-0.123-0.062
			c-0.031-0.023-0.064-0.043-0.096-0.061c-0.018-0.016-0.031-0.034-0.037-0.05c-0.007-0.016-0.021-0.032-0.036-0.048
			c-0.016,0-0.029-0.008-0.04-0.025c-0.007-0.015-0.021-0.031-0.033-0.048c-0.021,0-0.03-0.003-0.038-0.014
			c-0.005-0.006-0.023-0.02-0.038-0.036c-0.018,0-0.025-0.003-0.037-0.013c-0.007-0.005-0.014-0.021-0.014-0.036
			c-0.047-0.029-0.085-0.068-0.121-0.108c-0.031-0.042-0.063-0.095-0.097-0.16c-0.015-0.063-0.032-0.144-0.048-0.243
			c-0.018-0.096-0.024-0.218-0.024-0.366V11.913l1.269-0.999v-0.049h-3.806C88.397,10.897,88.397,10.924,88.397,10.938z"/>
		<path fill="#FFFFFF" stroke="#FFFFFF" stroke-width="0.25" stroke-miterlimit="10" d="M95.591,27.33
			c0.181,0.033,0.343,0.039,0.49,0.023c0.144-0.018,0.276-0.049,0.387-0.098c0.13-0.033,0.249-0.081,0.355-0.146
			c0.103-0.066,0.213-0.14,0.328-0.222c0.082-0.046,0.158-0.108,0.23-0.181c0.076-0.075,0.152-0.151,0.23-0.231
			c0.083-0.082,0.17-0.172,0.259-0.268c0.091-0.099,0.182-0.204,0.28-0.32c0.032-0.028,0.07-0.067,0.108-0.107
			c0.045-0.041,0.08-0.086,0.113-0.135c0.033-0.033,0.065-0.068,0.11-0.11c0.036-0.038,0.075-0.086,0.107-0.132
			c0.13-0.148,0.25-0.301,0.352-0.454c0.107-0.153,0.21-0.313,0.307-0.476c0.096-0.145,0.192-0.309,0.282-0.486
			c0.087-0.178,0.175-0.365,0.256-0.561l6.121-13.293h0.168l6.294,14.293c0.033,0.08,0.07,0.17,0.108,0.268
			c0.044,0.098,0.098,0.211,0.162,0.342c0.032,0.064,0.065,0.13,0.11,0.194c0.038,0.067,0.076,0.124,0.107,0.173
			c0.049,0.062,0.092,0.128,0.137,0.195c0.039,0.066,0.082,0.127,0.133,0.193c0.014,0.016,0.035,0.037,0.051,0.061
			c0.016,0.026,0.033,0.053,0.047,0.085c0.017,0.017,0.032,0.038,0.045,0.063c0.021,0.021,0.033,0.052,0.051,0.085
			c0,0.016,0,0.026,0,0.036c0,0.006,0.01,0.01,0.027,0.01c0,0.018,0.002,0.03,0.014,0.037c0.004,0.01,0.01,0.019,0.01,0.039
			c0.016,0.016,0.033,0.029,0.047,0.047c0.02,0.016,0.033,0.033,0.049,0.049c0.115,0.162,0.232,0.309,0.354,0.439
			s0.256,0.244,0.401,0.342c0.133,0.098,0.283,0.17,0.453,0.219c0.172,0.049,0.363,0.073,0.572,0.073l0.364-0.048v0.342h-8.927
			V27.33h0.516c0.241,0.033,0.457,0.026,0.641-0.013c0.189-0.04,0.34-0.109,0.454-0.207c0.113-0.082,0.221-0.179,0.317-0.294
			c0.098-0.113,0.187-0.243,0.27-0.391l0.023-0.021v-0.025c0.013-0.017,0.032-0.033,0.048-0.051
			c0.064-0.078,0.123-0.165,0.171-0.254c0.048-0.09,0.083-0.186,0.099-0.281c0.032-0.098,0.052-0.193,0.06-0.293
			c0.008-0.096,0.011-0.195,0.011-0.293c0-0.079,0-0.166,0-0.257c0-0.087-0.018-0.183-0.048-0.278
			c-0.02-0.049-0.031-0.1-0.049-0.148c-0.02-0.049-0.034-0.096-0.047-0.146c-0.018-0.031-0.034-0.072-0.051-0.122
			c-0.016-0.048-0.032-0.098-0.048-0.146l-1.17-2.73h-6.756l-1.075,2.293c-0.065,0.18-0.12,0.337-0.168,0.477
			c-0.05,0.137-0.09,0.271-0.125,0.4c-0.03,0.113-0.055,0.23-0.074,0.352c-0.016,0.125-0.025,0.234-0.025,0.331
			c0,0.113,0.009,0.219,0.025,0.317c0.019,0.098,0.03,0.189,0.054,0.268c0.03,0.082,0.056,0.163,0.083,0.244
			c0.023,0.083,0.061,0.164,0.109,0.244c0.081,0.162,0.171,0.309,0.268,0.439c0.098,0.131,0.203,0.244,0.319,0.342
			c0.128,0.098,0.266,0.17,0.411,0.219c0.146,0.049,0.315,0.073,0.512,0.073l0.709-0.048v0.342h-6.562V27.33z M99.204,27.33
			c-0.017-0.066-0.032-0.135-0.039-0.207c-0.009-0.076-0.014-0.143-0.014-0.208c-0.016-0.083-0.023-0.163-0.023-0.245
			s0-0.163,0-0.244c0-0.098,0-0.199,0-0.303c0-0.106,0.008-0.217,0.023-0.33c0.016-0.113,0.038-0.224,0.063-0.328
			c0.023-0.106,0.042-0.218,0.061-0.33l-0.071-0.05c-0.149,0.214-0.297,0.408-0.444,0.587c-0.148,0.178-0.298,0.356-0.464,0.537
			c-0.158,0.162-0.32,0.326-0.475,0.499c-0.152,0.17-0.32,0.328-0.498,0.476v0.146H99.204z M101.324,21.062h6.413l-0.314-0.781
			h-5.78L101.324,21.062z M101.785,19.988h5.49l-2.683-6.074L101.785,19.988z M104.798,13.439c-0.005,0.024-0.01,0.044-0.01,0.061
			c0,0.017,0,0.033,0,0.049c0,0.015,0,0.034,0,0.048c0,0.016,0,0.034,0,0.048c0,0.018,0.006,0.035,0.023,0.05
			c0,0.018,0.004,0.028,0.013,0.037c0.007,0.009,0.022,0.012,0.035,0.012c0,0.016,0.006,0.028,0.012,0.038
			c0.01,0.008,0.012,0.02,0.012,0.036l4.518,10.146c0.043,0.131,0.089,0.254,0.129,0.367c0.042,0.112,0.072,0.219,0.087,0.314
			c0.03,0.1,0.052,0.199,0.058,0.295c0.007,0.098,0.014,0.188,0.014,0.268c0,0.243-0.029,0.473-0.085,0.682
			c-0.059,0.214-0.143,0.408-0.258,0.588c-0.115,0.178-0.232,0.336-0.352,0.475c-0.123,0.139-0.249,0.257-0.379,0.354
			c-0.016,0.016-0.031,0.031-0.048,0.049h-0.024V27.33h4.754v-0.025c-0.159-0.066-0.317-0.164-0.474-0.304
			c-0.156-0.139-0.305-0.298-0.453-0.477c-0.146-0.179-0.282-0.361-0.412-0.548c-0.132-0.188-0.254-0.377-0.367-0.572
			c-0.03-0.049-0.067-0.1-0.1-0.148c-0.03-0.049-0.063-0.104-0.096-0.171c-0.031-0.048-0.061-0.096-0.084-0.146
			c-0.025-0.05-0.055-0.096-0.086-0.146c-0.053-0.098-0.1-0.195-0.148-0.293c-0.047-0.098-0.088-0.195-0.121-0.293l-5.291-12.267
			h-0.1l-0.778,1.389h0.047C104.817,13.377,104.804,13.415,104.798,13.439z"/>
		<path fill="#FFFFFF" stroke="#FFFFFF" stroke-width="0.25" stroke-miterlimit="10" d="M117.666,10.499h5.659l4.536,10.708
			l4.293-9.098c0.015-0.033,0.029-0.055,0.048-0.073c0.015-0.034,0.028-0.06,0.037-0.084c0.009-0.025,0.021-0.045,0.036-0.062
			c0.014-0.032,0.027-0.062,0.035-0.085c0.008-0.022,0.014-0.052,0.014-0.086c0.015-0.016,0.026-0.04,0.035-0.072
			c0.007-0.032,0.016-0.057,0.016-0.074c0.014-0.049,0.025-0.109,0.035-0.184c0.006-0.072,0.01-0.14,0.01-0.206v-0.684h6.195v0.319
			l-0.758,0.046c-0.047,0.032-0.093,0.054-0.133,0.062c-0.042,0.007-0.077,0.011-0.107,0.011c-0.034,0.016-0.072,0.032-0.109,0.038
			c-0.045,0.008-0.078,0.021-0.109,0.038c-0.035,0.015-0.072,0.032-0.115,0.048c-0.037,0.019-0.075,0.024-0.104,0.024
			c-0.035,0.017-0.074,0.033-0.111,0.048c-0.04,0.019-0.082,0.034-0.113,0.05c-0.031,0.015-0.066,0.03-0.096,0.047
			c-0.033,0.019-0.063,0.025-0.098,0.025c-0.031,0.018-0.06,0.031-0.086,0.048c-0.025,0.019-0.051,0.035-0.084,0.049
			c-0.049,0.033-0.094,0.062-0.135,0.085c-0.039,0.025-0.079,0.053-0.109,0.086c-0.033,0.016-0.059,0.036-0.086,0.061
			c-0.021,0.026-0.054,0.054-0.086,0.085c-0.063,0.063-0.133,0.123-0.193,0.17c-0.065,0.049-0.121,0.099-0.172,0.145
			c-0.049,0.05-0.089,0.099-0.119,0.148c-0.036,0.047-0.066,0.095-0.099,0.144c-0.033,0.067-0.062,0.129-0.088,0.186
			c-0.024,0.057-0.046,0.115-0.06,0.181c-0.02,0.067-0.023,0.125-0.023,0.185c0,0.057,0,0.117,0,0.181c0,0.067,0,0.131,0,0.197
			c0,0.063,0.004,0.137,0.023,0.219c0,0.063,0.004,0.142,0.011,0.231c0.011,0.088,0.021,0.174,0.04,0.256c0,0.017,0,0.033,0,0.046
			c0,0.018,0.009,0.035,0.022,0.052c0,0.016,0,0.031,0,0.047c0,0.018,0,0.033,0,0.05c0,0.016,0,0.033,0,0.049
			c0,0.015,0.011,0.03,0.023,0.048c0,0.015,0,0.032,0,0.048c0,0.017,0,0.035,0,0.05l0.78,10.146c0,0.064,0,0.121,0,0.172
			c0,0.049,0,0.088,0,0.121c0,0.049,0.006,0.09,0.013,0.123s0.02,0.066,0.036,0.096c0,0.147,0.007,0.269,0.025,0.365
			c0.015,0.1,0.031,0.189,0.051,0.271c0.029,0.066,0.059,0.127,0.082,0.193c0.023,0.067,0.063,0.121,0.111,0.17
			c0.018,0.033,0.035,0.065,0.062,0.098c0.021,0.032,0.044,0.066,0.06,0.1c0.035,0.028,0.061,0.064,0.085,0.096
			c0.026,0.033,0.042,0.066,0.063,0.098c0.077,0.113,0.177,0.225,0.292,0.33c0.113,0.106,0.229,0.205,0.342,0.305
			c0.129,0.098,0.264,0.176,0.402,0.23c0.137,0.059,0.283,0.096,0.426,0.111h0.978v0.342h-8.437V27.33
			c0.046,0.033,0.102,0.048,0.168,0.048c0.063,0,0.128-0.009,0.195-0.024c0.064-0.018,0.127-0.033,0.194-0.049
			c0.063-0.016,0.132-0.032,0.193-0.049c0.148-0.033,0.292-0.072,0.429-0.122c0.139-0.048,0.271-0.105,0.403-0.171
			c0.13-0.064,0.245-0.137,0.354-0.219c0.104-0.08,0.206-0.178,0.304-0.291c0-0.018,0.001-0.029,0.009-0.039
			c0.01-0.008,0.022-0.02,0.04-0.035c0.016-0.017,0.032-0.033,0.049-0.051c0.015-0.017,0.028-0.031,0.047-0.047
			c0.016-0.017,0.033-0.031,0.049-0.049c0.033-0.05,0.064-0.109,0.1-0.186c0.029-0.07,0.054-0.141,0.073-0.205
			c0.03-0.08,0.053-0.17,0.058-0.27c0.011-0.096,0.018-0.212,0.018-0.341c0-0.03,0-0.064,0-0.097c0-0.033,0-0.066,0-0.098
			c-0.02-0.048-0.022-0.094-0.022-0.137c0-0.037,0-0.084,0-0.133c0-0.096-0.009-0.203-0.02-0.316
			c-0.007-0.112-0.021-0.228-0.033-0.342l-1.002-12h-0.022l-6.05,13.122l-5.103-12.023h-0.066l-1.003,9.244c0,0.033,0,0.065,0,0.099
			c0,0.031,0,0.057,0,0.072c-0.016,0.031-0.023,0.061-0.023,0.084s0,0.053,0,0.084c-0.016,0.067-0.027,0.129-0.035,0.185
			c-0.012,0.058-0.012,0.119-0.012,0.182c-0.019,0.051-0.032,0.1-0.036,0.149c-0.009,0.05-0.013,0.087-0.013,0.121
			c-0.017,0.047-0.027,0.096-0.027,0.145c0,0.051,0,0.1,0,0.15c0,0.046-0.004,0.096-0.011,0.145
			c-0.011,0.05-0.013,0.096-0.013,0.145c0,0.064,0,0.123,0,0.171c0,0.05,0,0.097,0,0.147c0,0.047,0,0.094,0,0.135
			c0,0.039,0,0.076,0,0.107c0,0.051,0,0.094,0,0.137c0,0.04,0.006,0.076,0.023,0.107c0,0.131,0.011,0.256,0.04,0.381
			c0.021,0.119,0.051,0.244,0.083,0.375c0.03,0.117,0.077,0.231,0.137,0.357c0.053,0.117,0.115,0.23,0.182,0.326
			c0.129,0.197,0.283,0.365,0.463,0.512c0.176,0.147,0.39,0.261,0.633,0.343c0.247,0.081,0.497,0.146,0.758,0.194
			c0.26,0.049,0.522,0.073,0.781,0.073v0.294h-6.637V27.33c0.229-0.016,0.451-0.069,0.67-0.16c0.221-0.088,0.439-0.207,0.646-0.354
			c0.213-0.146,0.414-0.313,0.607-0.5c0.197-0.188,0.396-0.395,0.59-0.621c0.019-0.016,0.025-0.029,0.038-0.049
			c0.005-0.017,0.021-0.033,0.037-0.047c0.015-0.033,0.028-0.061,0.046-0.076c0.016-0.014,0.027-0.025,0.037-0.035
			c0.008-0.008,0.02-0.022,0.035-0.038c0-0.017,0.006-0.03,0.012-0.046c0.011-0.019,0.02-0.035,0.039-0.049
			c0.08-0.1,0.145-0.204,0.197-0.318c0.045-0.114,0.089-0.23,0.12-0.342c0.016-0.064,0.028-0.131,0.046-0.195
			c0.019-0.065,0.033-0.138,0.049-0.221c0-0.078,0.008-0.165,0.025-0.257c0.015-0.089,0.035-0.182,0.051-0.278l1.096-9.783
			c0-0.013,0-0.039,0-0.072c0-0.028,0.01-0.063,0.025-0.096c0-0.016,0-0.041,0-0.074c0-0.033,0-0.064,0-0.097s0-0.059,0-0.085
			s0.006-0.054,0.021-0.087c0-0.015,0-0.039,0-0.072c0-0.032,0-0.063,0-0.098c0-0.146-0.004-0.282-0.021-0.404
			c-0.016-0.122-0.039-0.22-0.072-0.303c-0.018-0.034-0.04-0.07-0.063-0.109c-0.025-0.041-0.045-0.088-0.059-0.135
			c-0.033-0.033-0.062-0.069-0.072-0.109c-0.018-0.043-0.044-0.078-0.076-0.111c-0.018-0.014-0.031-0.027-0.033-0.036
			c-0.01-0.009-0.021-0.019-0.039-0.037c-0.018-0.016-0.027-0.029-0.037-0.037c-0.012-0.007-0.012-0.019-0.012-0.036
			c-0.064-0.082-0.138-0.15-0.208-0.208c-0.075-0.056-0.145-0.108-0.209-0.158c-0.064-0.047-0.126-0.096-0.182-0.146
			c-0.058-0.048-0.11-0.098-0.159-0.147c-0.047-0.03-0.098-0.059-0.146-0.084c-0.045-0.025-0.098-0.052-0.145-0.086
			c-0.068-0.015-0.122-0.031-0.173-0.048c-0.048-0.016-0.094-0.033-0.146-0.049c-0.113-0.032-0.234-0.055-0.366-0.072
			c-0.126-0.016-0.268-0.033-0.413-0.049l-0.658-0.096V10.499z M117.587,27.33h2.174c-0.018-0.032-0.025-0.074-0.025-0.122
			s0-0.104,0-0.172c0-0.065,0-0.124,0-0.184c0-0.055,0-0.116,0-0.183c0-0.049,0-0.097,0-0.146c0-0.048,0-0.106,0-0.171
			c-0.016-0.049-0.023-0.102-0.023-0.158s0-0.108,0-0.159c-0.018-0.098-0.027-0.199-0.033-0.304
			c-0.012-0.107-0.022-0.215-0.038-0.328l-0.026-0.049c-0.094,0.227-0.211,0.434-0.342,0.621c-0.127,0.187-0.283,0.369-0.464,0.548
			c-0.162,0.163-0.335,0.313-0.521,0.45c-0.188,0.142-0.379,0.248-0.575,0.33h-0.021c-0.016,0.016-0.033,0.025-0.048,0.025h-0.027
			l-0.028,0.023v-0.049V27.33z M126.445,24.451l0.853-1.9l-4.973-11.686h-2.684v0.049c0.016,0.033,0.028,0.057,0.046,0.074
			c0.019,0.016,0.033,0.032,0.049,0.047c0.017,0.016,0.04,0.031,0.061,0.037c0.028,0.01,0.049,0.013,0.062,0.013
			c0.183,0.098,0.345,0.201,0.504,0.317c0.153,0.117,0.306,0.237,0.45,0.366c0.143,0.131,0.287,0.306,0.426,0.525
			c0.135,0.219,0.262,0.475,0.378,0.769v-0.051L126.445,24.451z M133.905,24.451c0,0.049,0,0.09,0,0.121
			c0,0.033,0.013,0.064,0.028,0.1c0,0.031,0,0.061,0,0.087c0,0.021,0,0.048,0,0.085c0,0.013,0,0.038,0,0.07c0,0.033,0,0.059,0,0.075
			c0,0.032,0,0.059,0,0.083c0,0.025,0,0.056,0,0.088c0,0.113-0.002,0.23-0.016,0.352c-0.008,0.121-0.028,0.24-0.062,0.354
			c-0.016,0.113-0.042,0.221-0.083,0.316c-0.039,0.099-0.104,0.188-0.179,0.271c-0.119,0.113-0.224,0.213-0.321,0.303
			c-0.1,0.092-0.189,0.176-0.266,0.256c-0.1,0.065-0.188,0.129-0.27,0.184c-0.081,0.059-0.164,0.103-0.243,0.135h4.609v-0.049
			c-0.358-0.163-0.657-0.333-0.893-0.514c-0.233-0.18-0.401-0.363-0.499-0.559c-0.096-0.197-0.173-0.416-0.232-0.66
			c-0.055-0.244-0.098-0.504-0.134-0.781l-0.974-11.219c0,0.015,0,0.015,0,0c0-0.016,0-0.032,0-0.049c0-0.032,0-0.061,0-0.085
			c0-0.023,0-0.045,0-0.061c-0.018-0.017-0.025-0.031-0.025-0.048c0-0.017,0-0.034,0-0.049c0-0.017,0-0.029,0-0.038
			c0-0.01,0-0.02,0-0.038c0-0.013,0-0.03,0-0.047c0-0.112,0.004-0.222,0.01-0.318c0.012-0.098,0.021-0.193,0.04-0.293
			c0.03-0.098,0.06-0.181,0.097-0.255c0.03-0.075,0.072-0.14,0.119-0.207c0.068-0.048,0.135-0.102,0.211-0.161
			c0.072-0.055,0.139-0.115,0.208-0.182c0.077-0.065,0.169-0.129,0.253-0.194c0.094-0.066,0.187-0.129,0.281-0.195
			c0.051-0.032,0.099-0.061,0.146-0.084c0.049-0.025,0.098-0.054,0.148-0.086c0.031-0.016,0.06-0.032,0.086-0.05
			c0.023-0.016,0.052-0.029,0.083-0.048c0.013-0.016,0.044-0.033,0.075-0.048c0.033-0.017,0.054-0.032,0.07-0.049v-0.099h-3.414
			L133.905,24.451z"/>
		<path fill="#FFFFFF" stroke="#FFFFFF" stroke-width="0.25" stroke-miterlimit="10" d="M153.699,10.999
			c1.049,0.433,2.012,1.077,2.893,1.939c0.859,0.862,1.51,1.813,1.947,2.854c0.438,1.04,0.664,2.163,0.664,3.367
			c0,1.203-0.226,2.316-0.664,3.338c-0.438,1.025-1.088,1.971-1.947,2.83c-0.881,0.846-1.844,1.479-2.893,1.891
			c-1.047,0.415-2.191,0.623-3.424,0.623c-1.24,0-2.381-0.208-3.441-0.623c-1.056-0.412-2.027-1.045-2.903-1.891
			c-0.88-0.859-1.528-1.805-1.962-2.83c-0.431-1.021-0.648-2.135-0.648-3.338c0-1.204,0.218-2.327,0.648-3.367
			c0.434-1.041,1.082-1.993,1.962-2.854c0.876-0.863,1.848-1.507,2.903-1.939c1.061-0.429,2.201-0.646,3.441-0.646v-0.048
			C151.507,10.337,152.652,10.57,153.699,10.999z M146.201,11.623c-0.584,0.322-1.114,0.693-1.588,1.107
			c-0.471,0.416-0.894,0.882-1.268,1.404c-0.357,0.52-0.662,1.053-0.914,1.597c-0.248,0.543-0.441,1.102-0.572,1.67
			c-0.018,0.066-0.031,0.138-0.047,0.221c-0.02,0.079-0.035,0.151-0.051,0.218c0,0.081-0.01,0.159-0.028,0.233
			c-0.012,0.072-0.022,0.15-0.022,0.23c-0.017,0.147-0.026,0.292-0.036,0.44c-0.007,0.146-0.009,0.291-0.009,0.437
			c0,0.066,0,0.141,0,0.222c0,0.08,0,0.155,0,0.219c0,0.083,0.002,0.159,0.009,0.231c0.01,0.074,0.02,0.15,0.036,0.23
			c0.033,0.164,0.062,0.322,0.088,0.479c0.023,0.154,0.061,0.311,0.107,0.475c0.146,0.568,0.352,1.127,0.614,1.67
			c0.259,0.547,0.576,1.078,0.948,1.598c0.374,0.502,0.787,0.951,1.245,1.342c0.452,0.39,0.95,0.707,1.487,0.95l0.021-0.049
			c-0.535-0.455-0.996-0.962-1.391-1.522c-0.392-0.561-0.705-1.168-0.95-1.817c-0.244-0.65-0.426-1.315-0.55-2.001
			c-0.12-0.682-0.173-1.382-0.159-2.098c0.02-0.715,0.088-1.413,0.21-2.097c0.122-0.682,0.304-1.343,0.548-1.975
			c0.245-0.635,0.558-1.233,0.94-1.794c0.384-0.562,0.834-1.085,1.352-1.573v-0.047H146.201z M147.57,11.245
			c-0.754,0.381-1.337,0.93-1.76,1.645c-0.423,0.732-0.746,1.62-0.963,2.66c-0.223,1.039-0.34,2.243-0.355,3.61
			c-0.016,1.154,0.086,2.23,0.305,3.23c0.219,0.998,0.547,1.914,0.988,2.744c0.438,0.828,1.031,1.451,1.785,1.866
			c0.744,0.413,1.657,0.614,2.727,0.597c1.104-0.016,2.035-0.231,2.796-0.646c0.755-0.416,1.336-1.037,1.739-1.866
			c0.408-0.812,0.713-1.72,0.914-2.718c0.204-1.002,0.318-2.086,0.334-3.258c0.015-1.202-0.088-2.312-0.305-3.33
			c-0.225-1.015-0.562-1.919-1.012-2.718c-0.46-0.813-1.055-1.415-1.797-1.807c-0.738-0.39-1.631-0.585-2.67-0.585v-0.048
			C149.227,10.653,148.314,10.861,147.57,11.245z M155.1,12.953c0.359,0.575,0.62,1.206,0.78,1.887
			c0.164,0.701,0.291,1.408,0.377,2.123c0.092,0.716,0.145,1.455,0.161,2.218c0,0.262-0.005,0.547-0.013,0.855
			c-0.006,0.308-0.027,0.651-0.059,1.026c-0.02,0.355-0.064,0.723-0.133,1.097c-0.076,0.372-0.176,0.755-0.309,1.147
			c-0.098,0.309-0.203,0.61-0.329,0.9c-0.122,0.293-0.264,0.586-0.423,0.878c-0.165,0.294-0.349,0.573-0.553,0.845
			c-0.205,0.266-0.434,0.523-0.693,0.764l0.072-0.023c0.57-0.324,1.069-0.69,1.497-1.098c0.431-0.405,0.797-0.846,1.087-1.317
			c0.293-0.47,0.537-0.944,0.734-1.425c0.195-0.48,0.348-0.971,0.461-1.477c0.035-0.178,0.066-0.357,0.098-0.537
			c0.033-0.176,0.057-0.355,0.076-0.535c0.03-0.179,0.051-0.361,0.061-0.547c0.006-0.189,0.018-0.371,0.035-0.553
			c0-0.015,0-0.031,0-0.048c0-0.016,0-0.033,0-0.048c0-0.032,0-0.057,0-0.072c0-0.032,0-0.065,0-0.099c0-0.032,0-0.064,0-0.096
			c0-0.146-0.006-0.294-0.014-0.441c-0.008-0.145-0.021-0.298-0.036-0.463c-0.016-0.145-0.037-0.296-0.062-0.45
			c-0.023-0.153-0.051-0.313-0.085-0.475c-0.114-0.586-0.293-1.156-0.534-1.707c-0.248-0.555-0.539-1.092-0.88-1.61
			c-0.354-0.521-0.755-0.974-1.198-1.356c-0.436-0.381-0.924-0.687-1.462-0.914l-0.048-0.025
			C154.282,11.851,154.746,12.374,155.1,12.953z"/>
		<path fill="#FFFFFF" stroke="#FFFFFF" stroke-width="0.25" stroke-miterlimit="10" d="M177.48,11.718
			c0.041,0.488,0.09,0.969,0.158,1.443c0.063,0.469,0.16,0.936,0.293,1.401c0.128,0.461,0.294,0.93,0.489,1.399l-0.271,0.052
			c-0.098-0.115-0.207-0.26-0.328-0.44c-0.122-0.18-0.265-0.374-0.429-0.586c-0.161-0.227-0.333-0.452-0.512-0.67
			c-0.178-0.22-0.382-0.442-0.607-0.673c-0.36-0.355-0.747-0.697-1.173-1.021c-0.423-0.327-0.893-0.643-1.414-0.952
			c-0.502-0.308-1.063-0.549-1.67-0.72c-0.609-0.171-1.258-0.264-1.941-0.28c-0.016,0-0.033,0-0.047,0c-0.015,0-0.03,0-0.039,0
			c-0.006,0-0.02,0-0.031,0c-0.02,0-0.037,0-0.053,0s-0.033,0-0.047,0c-0.668,0-1.305,0.134-1.916,0.402
			c-0.61,0.269-1.182,0.671-1.721,1.206c-0.535,0.538-0.938,1.324-1.205,2.356c-0.271,1.03-0.403,2.313-0.403,3.84
			c0,0.015,0,0.037,0,0.063c0,0.022,0,0.042,0,0.058c0,0.034,0,0.06,0,0.076c0,0.015,0,0.04,0,0.073c0,0.015,0,0.035,0,0.059
			c0,0.028,0,0.047,0,0.063c0,0.034,0,0.057,0,0.073c0,0.016,0,0.041,0,0.073c0,0.081,0,0.168,0,0.256c0,0.09,0,0.174,0,0.255
			c0,0.098,0.004,0.192,0.011,0.279c0.009,0.091,0.02,0.175,0.038,0.257c0,0.084,0.002,0.166,0.011,0.256
			c0.011,0.09,0.021,0.174,0.036,0.258c0.017,0.098,0.03,0.191,0.037,0.281c0.009,0.087,0.022,0.172,0.038,0.254
			c0.13,0.75,0.33,1.469,0.609,2.16c0.277,0.69,0.635,1.354,1.073,1.986c0.439,0.65,1.021,1.162,1.745,1.535
			c0.724,0.379,1.598,0.611,2.622,0.707c0.014,0,0.031,0,0.049,0c0.016,0,0.032,0,0.047,0c0.018,0,0.028,0,0.049,0
			c0.018,0,0.031,0,0.051,0c0,0.018,0.009,0.027,0.024,0.027c0.014,0,0.03,0,0.045,0c0.018,0,0.037,0,0.051,0
			c0.016,0,0.035,0,0.053,0c0.209,0,0.426-0.014,0.652-0.036c0.232-0.024,0.466-0.069,0.709-0.136
			c0.247-0.064,0.488-0.143,0.732-0.23c0.244-0.089,0.498-0.191,0.758-0.307c0.405-0.179,0.802-0.398,1.191-0.656
			c0.392-0.262,0.786-0.547,1.174-0.855c0.372-0.324,0.717-0.674,1.023-1.05c0.311-0.372,0.569-0.771,0.782-1.192l0.363,0.095
			c-0.017,0.051-0.03,0.092-0.049,0.123c-0.015,0.034-0.021,0.057-0.021,0.076c-0.021,0.03-0.038,0.06-0.054,0.082
			c-0.014,0.026-0.031,0.054-0.044,0.085c-0.037,0.049-0.064,0.1-0.1,0.148c-0.036,0.051-0.064,0.097-0.096,0.146
			c-0.343,0.504-0.755,0.986-1.244,1.448c-0.49,0.466-1.058,0.907-1.708,1.33c-0.65,0.407-1.387,0.714-2.207,0.915
			c-0.824,0.205-1.734,0.313-2.744,0.33c-1.268,0-2.414-0.208-3.439-0.623c-1.021-0.412-1.928-1.045-2.707-1.891
			c-0.795-0.859-1.412-1.764-1.843-2.705c-0.429-0.943-0.688-1.936-0.767-2.977c0-0.034,0-0.057,0-0.073c0-0.015,0-0.042,0-0.073
			c-0.018-0.017-0.021-0.036-0.021-0.062c0-0.024,0-0.043,0-0.061c0-0.033,0-0.056,0-0.073c0-0.016,0-0.043,0-0.073
			c0-0.016,0-0.037,0-0.063c0-0.022,0-0.042,0-0.061c0-0.208,0.004-0.427,0.021-0.645c0.014-0.222,0.049-0.436,0.097-0.646
			c0.03-0.228,0.081-0.456,0.147-0.685c0.064-0.225,0.127-0.455,0.193-0.68c0.279-0.766,0.663-1.502,1.159-2.208
			c0.495-0.708,1.094-1.379,1.792-2.015c0.717-0.633,1.523-1.108,2.428-1.425c0.899-0.315,1.913-0.467,3.038-0.452
			c0.175,0,0.351,0.004,0.522,0.014c0.17,0.008,0.338,0.02,0.5,0.036c0.079,0.016,0.164,0.028,0.244,0.036
			c0.082,0.01,0.161,0.012,0.242,0.012c0.068,0.018,0.143,0.028,0.223,0.038c0.078,0.008,0.16,0.019,0.24,0.035h0.025
			c0,0.017,0.008,0.023,0.023,0.023c0.02,0,0.029,0,0.037,0c0.009,0,0.022,0,0.036,0c0.082,0.017,0.159,0.031,0.222,0.037
			c0.063,0.01,0.137,0.013,0.215,0.013c0.068,0.017,0.137,0.029,0.213,0.036c0.072,0.01,0.143,0.011,0.208,0.011
			c0.145,0.018,0.298,0.028,0.46,0.038c0.164,0.008,0.326,0.013,0.488,0.013c0.196,0,0.405-0.01,0.636-0.026
			c0.227-0.017,0.462-0.04,0.71-0.072c0.24-0.034,0.51-0.077,0.805-0.136c0.288-0.055,0.597-0.124,0.923-0.205v-0.051
			C177.409,10.728,177.441,11.23,177.48,11.718z M164.562,12.975c-0.584,0.544-1.061,1.151-1.435,1.816
			c-0.377,0.651-0.661,1.338-0.854,2.062c-0.195,0.724-0.309,1.469-0.34,2.232c0,0.015,0,0.029,0,0.035c0,0.012,0,0.022,0,0.04
			c0,0.016,0,0.027,0,0.035s0,0.021,0,0.037c0,0.096,0,0.196,0,0.292c0,0.098,0.004,0.194,0.021,0.293c0,0.049,0,0.099,0,0.145
			c0,0.052,0.01,0.093,0.025,0.123c0,0.049,0.004,0.1,0.014,0.148c0.006,0.049,0.02,0.097,0.03,0.146
			c0.134,0.828,0.394,1.621,0.786,2.378c0.388,0.756,0.9,1.483,1.535,2.183c0.636,0.699,1.322,1.249,2.063,1.657
			c0.738,0.407,1.531,0.667,2.375,0.781v-0.073c-0.668-0.228-1.291-0.568-1.876-1.023c-0.586-0.457-1.13-1.025-1.637-1.709
			c-0.501-0.664-0.905-1.361-1.204-2.084c-0.303-0.723-0.5-1.469-0.6-2.231c-0.016-0.083-0.029-0.159-0.035-0.232
			c-0.006-0.073-0.01-0.143-0.01-0.208c0-0.033,0-0.069,0-0.111c0-0.04,0-0.084,0-0.133c0-0.033,0-0.07,0-0.109
			c0-0.042,0-0.077,0-0.11c0-0.017,0-0.032,0-0.049c0-0.016,0-0.032,0-0.049s0-0.033,0-0.047c0-0.019,0-0.033,0-0.048
			c0.029-0.75,0.098-1.44,0.203-2.074c0.107-0.633,0.266-1.204,0.479-1.708c0.193-0.52,0.404-0.991,0.635-1.417
			c0.228-0.421,0.461-0.793,0.709-1.121c0.092-0.127,0.195-0.255,0.303-0.375c0.104-0.122,0.215-0.24,0.326-0.355
			c0.1-0.096,0.197-0.196,0.293-0.291c0.099-0.1,0.197-0.179,0.294-0.245l-0.048-0.097C165.831,11.93,165.15,12.431,164.562,12.975z
			 M173.322,11.061c0.309,0.163,0.596,0.322,0.866,0.474c0.265,0.155,0.523,0.316,0.768,0.478s0.481,0.333,0.72,0.51
			c0.234,0.181,0.463,0.383,0.695,0.611c0.033,0.017,0.06,0.036,0.082,0.06c0.025,0.025,0.047,0.046,0.061,0.063
			c0.039,0.032,0.066,0.059,0.088,0.072c0.025,0.017,0.045,0.041,0.063,0.074c0.033,0.015,0.062,0.04,0.084,0.072
			c0.027,0.034,0.044,0.058,0.061,0.074c0.035,0.034,0.06,0.06,0.086,0.084c0.024,0.026,0.044,0.054,0.061,0.087l0.049-0.075
			l-0.902-2.656h-2.779V11.061z"/>
		<path fill="#FFFFFF" stroke="#FFFFFF" stroke-width="0.25" stroke-miterlimit="10" d="M180.884,10.499h7.68v0.319h-0.781
			c-0.016,0.015-0.031,0.029-0.047,0.046c-0.016,0-0.029,0-0.035,0c-0.009,0-0.023,0-0.039,0c-0.014,0-0.031,0-0.049,0
			c-0.018,0.019-0.03,0.026-0.036,0.026c-0.009,0-0.021,0-0.033,0c-0.183,0.033-0.358,0.093-0.528,0.182
			c-0.168,0.091-0.328,0.207-0.473,0.356c-0.168,0.144-0.283,0.29-0.371,0.437c-0.077,0.147-0.126,0.302-0.144,0.464
			c0,0.017,0,0.033,0,0.047v0.025v4.854h9.173v-4.805c0-0.083-0.016-0.172-0.051-0.27c-0.033-0.096-0.082-0.195-0.143-0.292
			c-0.069-0.097-0.129-0.188-0.186-0.267c-0.06-0.083-0.127-0.155-0.208-0.221c-0.02-0.017-0.029-0.027-0.042-0.036
			c-0.005-0.009-0.018-0.019-0.031-0.037c-0.014,0-0.029-0.002-0.035-0.012c-0.01-0.008-0.023-0.021-0.038-0.038
			c-0.018-0.015-0.038-0.031-0.06-0.049c-0.029-0.017-0.053-0.032-0.085-0.047c-0.018,0-0.024-0.009-0.024-0.024h-0.023v-0.026
			h-0.027c-0.066-0.048-0.144-0.093-0.234-0.134c-0.085-0.038-0.174-0.069-0.249-0.085c-0.087-0.017-0.182-0.028-0.296-0.037
			c-0.115-0.007-0.246-0.012-0.394-0.012l-0.364-0.046v-0.319h7.682v0.319h-0.413c-0.013,0.029-0.035,0.051-0.06,0.059
			c-0.024,0.009-0.055,0.014-0.088,0.014c-0.017,0-0.027,0-0.048,0c-0.015,0-0.032,0-0.05,0c-0.099,0.018-0.184,0.04-0.264,0.073
			c-0.088,0.033-0.166,0.072-0.248,0.122c-0.08,0.048-0.154,0.102-0.23,0.16c-0.072,0.057-0.143,0.118-0.21,0.184
			c-0.016,0.015-0.026,0.029-0.03,0.047c-0.015,0.015-0.025,0.033-0.039,0.048c-0.02,0.016-0.031,0.027-0.035,0.036
			c-0.012,0.011-0.021,0.021-0.038,0.037v0.026c-0.068,0.063-0.122,0.126-0.173,0.181c-0.047,0.058-0.089,0.119-0.122,0.182
			c-0.046,0.068-0.079,0.134-0.096,0.207c-0.017,0.075-0.028,0.153-0.028,0.232v13.319c0,0.244,0.035,0.451,0.102,0.621
			c0.064,0.17,0.162,0.314,0.293,0.426c0.129,0.118,0.26,0.213,0.404,0.295c0.135,0.084,0.285,0.146,0.451,0.195
			c0.08,0.017,0.165,0.036,0.257,0.063c0.086,0.022,0.171,0.043,0.252,0.059c0.081,0.018,0.16,0.023,0.233,0.023s0.141,0,0.206,0
			v0.246h-7.511v-0.294c0.031,0.034,0.07,0.048,0.119,0.048c0.048,0,0.109-0.006,0.176-0.023c0.078,0,0.154-0.006,0.228-0.024
			c0.073-0.015,0.146-0.032,0.208-0.048c0.063,0,0.126-0.013,0.182-0.039c0.057-0.023,0.12-0.045,0.185-0.06
			c0.063-0.033,0.121-0.062,0.167-0.085c0.052-0.023,0.104-0.054,0.151-0.086c0.014,0,0.032-0.004,0.047-0.014
			c0.016-0.005,0.029-0.019,0.049-0.035c0.014-0.016,0.031-0.027,0.049-0.037c0.015-0.008,0.031-0.02,0.05-0.035
			c0.077-0.064,0.16-0.133,0.24-0.209c0.084-0.072,0.158-0.143,0.218-0.206c0.085-0.081,0.142-0.175,0.175-0.28
			c0.035-0.105,0.051-0.239,0.051-0.402v-7.513h-9.173v7.317c0,0.178,0.016,0.338,0.038,0.477c0.026,0.135,0.057,0.256,0.105,0.354
			c0.056,0.111,0.109,0.211,0.165,0.291c0.053,0.082,0.118,0.156,0.18,0.221h0.026v0.023h0.022c0,0.017,0.007,0.024,0.023,0.024
			c0.085,0.067,0.176,0.12,0.28,0.159c0.109,0.041,0.234,0.077,0.379,0.109c0.131,0.016,0.275,0.031,0.444,0.049
			c0.157,0.016,0.328,0.033,0.51,0.049c0.013,0,0.028,0,0.047,0c0.016,0,0.031,0,0.046,0c0.018,0.018,0.031,0.023,0.049,0.023
			c0.019,0,0.036,0,0.052,0c0.033,0,0.068,0,0.112,0c0.038,0,0.073,0,0.104,0v0.246h-7.581v-0.294
			c0.031,0.034,0.06,0.048,0.096,0.048c0.031,0,0.063-0.006,0.1-0.023c0.029,0,0.066-0.005,0.109-0.013
			c0.041-0.007,0.074-0.021,0.107-0.036c0.195-0.049,0.377-0.122,0.549-0.22c0.175-0.098,0.339-0.21,0.501-0.343
			c0.164-0.127,0.281-0.261,0.365-0.4c0.08-0.139,0.122-0.288,0.122-0.452V12.573c0-0.211-0.051-0.418-0.158-0.622
			c-0.107-0.203-0.267-0.389-0.476-0.55c-0.214-0.178-0.442-0.31-0.685-0.389c-0.24-0.083-0.504-0.129-0.777-0.148v-0.046V10.499z
			 M182.322,10.865l1.389,1.121v0.123l-0.412,0.367v13.706c0,0.114-0.018,0.208-0.051,0.28c-0.029,0.072-0.072,0.15-0.117,0.23
			c-0.02,0.034-0.044,0.066-0.079,0.098c-0.028,0.035-0.055,0.068-0.071,0.098c-0.031,0.021-0.06,0.04-0.084,0.063
			c-0.024,0.023-0.053,0.045-0.086,0.061c-0.019,0.017-0.036,0.032-0.049,0.049h-0.024c-0.034,0.017-0.067,0.035-0.112,0.063
			c-0.039,0.023-0.075,0.052-0.105,0.085c-0.053,0.015-0.098,0.038-0.148,0.06c-0.049,0.023-0.1,0.053-0.146,0.086v0.024h3.804
			v-0.073c-0.048-0.016-0.093-0.037-0.131-0.059c-0.04-0.027-0.083-0.048-0.112-0.063c-0.016-0.014-0.033-0.027-0.047-0.037
			c-0.02-0.006-0.024-0.021-0.024-0.036c-0.014,0-0.032-0.005-0.051-0.015c-0.019-0.006-0.032-0.019-0.048-0.035v-0.024h-0.024
			v-0.024c-0.017,0-0.036-0.008-0.06-0.023c-0.027-0.018-0.057-0.033-0.09-0.049c-0.014-0.016-0.027-0.027-0.034-0.038
			c-0.012-0.006-0.012-0.02-0.012-0.036c-0.017-0.016-0.03-0.027-0.036-0.036c-0.01-0.007-0.021-0.021-0.039-0.038
			c-0.063-0.047-0.124-0.107-0.182-0.18c-0.058-0.076-0.11-0.145-0.154-0.207c-0.053-0.082-0.087-0.172-0.116-0.271
			c-0.022-0.097-0.035-0.211-0.035-0.34V11.913l1.244-1.048v-0.046h-3.755V10.865z M186.028,18.085h9.173v-0.537h-9.173V18.085z
			 M194.517,10.938v0.026c0.016,0.018,0.03,0.028,0.048,0.036c0.019,0.01,0.029,0.014,0.049,0.014
			c0.016,0.015,0.031,0.027,0.048,0.036c0.016,0.007,0.033,0.02,0.05,0.036c0.031,0.017,0.071,0.036,0.11,0.062
			c0.041,0.024,0.078,0.051,0.109,0.083c0.028,0.019,0.066,0.043,0.094,0.073c0.035,0.035,0.068,0.06,0.1,0.074
			c0.035,0.034,0.068,0.061,0.098,0.086c0.031,0.022,0.064,0.055,0.1,0.086c0.08,0.065,0.154,0.126,0.229,0.181
			c0.075,0.06,0.145,0.127,0.212,0.209v0.169l-0.245,0.097v13.708c0,0.146-0.012,0.274-0.041,0.378
			c-0.021,0.106-0.046,0.198-0.079,0.281c-0.034,0.081-0.075,0.157-0.124,0.233c-0.051,0.071-0.098,0.133-0.148,0.182
			c-0.017,0.016-0.025,0.027-0.037,0.036c-0.004,0.01-0.02,0.02-0.033,0.036c-0.016,0.017-0.031,0.025-0.047,0.025v0.024h-0.032
			v0.023c-0.016,0.016-0.035,0.03-0.056,0.036c-0.027,0.008-0.055,0.021-0.089,0.038c-0.015,0.015-0.037,0.038-0.073,0.06
			c-0.031,0.023-0.063,0.053-0.096,0.086v0.024h3.516v-0.073c-0.02,0.016-0.044,0.031-0.072,0.049c-0.02,0-0.038-0.003-0.053-0.01
			c-0.016-0.011-0.033-0.023-0.051-0.039c-0.012,0-0.031-0.002-0.045-0.014c-0.021-0.006-0.026-0.019-0.026-0.035
			c-0.019,0-0.031-0.002-0.049-0.01c-0.017-0.01-0.033-0.023-0.052-0.038c-0.046-0.017-0.088-0.038-0.119-0.062
			c-0.033-0.023-0.064-0.043-0.096-0.061c-0.02-0.016-0.028-0.034-0.039-0.05c-0.007-0.016-0.018-0.032-0.035-0.048
			c-0.018,0-0.027-0.008-0.037-0.025c-0.008-0.015-0.02-0.031-0.037-0.048c-0.016,0-0.026-0.003-0.035-0.014
			c-0.009-0.006-0.02-0.02-0.037-0.036c-0.016,0-0.027-0.003-0.035-0.013c-0.008-0.005-0.014-0.021-0.014-0.036
			c-0.049-0.029-0.088-0.068-0.123-0.108c-0.031-0.042-0.064-0.095-0.096-0.16c-0.02-0.063-0.031-0.144-0.048-0.243
			c-0.017-0.096-0.024-0.218-0.024-0.366V11.913l1.268-0.999v-0.049h-3.805C194.517,10.897,194.517,10.924,194.517,10.938z"/>
		<path fill="#FFFFFF" stroke="#FFFFFF" stroke-width="0.25" stroke-miterlimit="10" d="M210.125,10.499v0.319
			c-0.111,0.029-0.227,0.051-0.342,0.059c-0.111,0.009-0.229,0.031-0.34,0.061c-0.114,0.016-0.221,0.046-0.32,0.085
			c-0.095,0.044-0.193,0.096-0.287,0.161c-0.018,0.015-0.037,0.027-0.051,0.036c-0.018,0.008-0.033,0.011-0.049,0.011
			c-0.018,0.019-0.031,0.03-0.037,0.038c-0.01,0.009-0.02,0.012-0.036,0.012c-0.065,0.049-0.136,0.106-0.21,0.171
			c-0.07,0.068-0.147,0.139-0.229,0.22c-0.067,0.082-0.113,0.18-0.15,0.292c-0.029,0.113-0.045,0.243-0.045,0.391v13.025
			c0,0.18,0.016,0.334,0.045,0.475c0.037,0.137,0.083,0.273,0.15,0.402c0.063,0.115,0.137,0.229,0.217,0.341
			c0.082,0.114,0.182,0.22,0.295,0.318c0.049,0.065,0.105,0.119,0.17,0.159c0.067,0.042,0.131,0.075,0.195,0.109
			c0.078,0.031,0.156,0.063,0.231,0.084c0.073,0.023,0.143,0.047,0.21,0.063c0.059,0.016,0.129,0.026,0.191,0.036
			c0.063,0.007,0.133,0.012,0.193,0.012c0.086,0,0.152,0,0.212,0c0.056,0,0.11,0,0.156,0v0.294h-7.513V27.33
			c0.195,0.033,0.371,0.039,0.521,0.023c0.16-0.018,0.288-0.039,0.381-0.072c0.1-0.035,0.191-0.077,0.284-0.135
			c0.083-0.057,0.173-0.118,0.251-0.184c0.015-0.015,0.033-0.031,0.051-0.048c0.014-0.017,0.033-0.033,0.051-0.05
			c0.014,0,0.026-0.003,0.035-0.013c0.01-0.005,0.021-0.021,0.037-0.036c0.018-0.016,0.032-0.025,0.048-0.025
			c0.066-0.047,0.124-0.1,0.171-0.158c0.049-0.055,0.097-0.116,0.148-0.18c0.031-0.066,0.058-0.142,0.084-0.221
			c0.023-0.082,0.039-0.172,0.039-0.27V12.548c0-0.097-0.021-0.202-0.051-0.318c-0.033-0.112-0.082-0.228-0.146-0.34
			c-0.065-0.111-0.145-0.219-0.233-0.317c-0.087-0.097-0.183-0.188-0.278-0.27c-0.1-0.063-0.184-0.12-0.257-0.17
			c-0.075-0.048-0.142-0.081-0.208-0.097c-0.063-0.032-0.133-0.055-0.197-0.072c-0.063-0.016-0.129-0.033-0.193-0.049
			c-0.016,0-0.035,0-0.047,0c-0.018,0-0.033-0.006-0.051-0.023c-0.018,0-0.033,0-0.049,0c-0.019,0-0.031,0-0.049,0
			c-0.031,0-0.063,0-0.096,0s-0.068,0-0.1,0c-0.016,0-0.037,0-0.059,0c-0.025,0-0.058,0-0.088,0c-0.016,0-0.029,0-0.051,0
			c-0.014,0-0.02-0.007-0.02-0.026c-0.017,0-0.035,0-0.054,0c-0.014,0-0.029,0-0.045,0v-0.366H210.125z M204.373,10.938v0.026
			c0.078,0.049,0.158,0.103,0.229,0.158c0.074,0.056,0.143,0.127,0.204,0.208c0.085,0.066,0.161,0.135,0.235,0.206
			c0.072,0.077,0.143,0.152,0.207,0.233c0.016,0.018,0.031,0.031,0.049,0.037c0.015,0.008,0.031,0.02,0.047,0.037
			c0,0.017,0.01,0.03,0.023,0.039c0.018,0.007,0.033,0.019,0.052,0.034c0.03,0.017,0.06,0.039,0.086,0.063
			c0.021,0.023,0.044,0.051,0.06,0.085v0.195l-0.316,0.22v13.34c0,0.115-0.002,0.207-0.012,0.28s-0.031,0.153-0.063,0.231
			c-0.014,0.066-0.033,0.135-0.061,0.207c-0.022,0.076-0.053,0.135-0.086,0.185c-0.014,0.032-0.039,0.07-0.072,0.109
			s-0.064,0.08-0.101,0.11c-0.031,0.049-0.072,0.095-0.118,0.135c-0.049,0.042-0.099,0.075-0.149,0.109
			c-0.015,0.015-0.03,0.031-0.046,0.048c-0.018,0.015-0.03,0.029-0.037,0.036c-0.009,0.01-0.02,0.014-0.037,0.014
			c-0.016,0.017-0.033,0.029-0.051,0.036c-0.012,0.009-0.029,0.019-0.043,0.036V27.33h3.701v-0.025
			c-0.015,0.016-0.041,0.013-0.081-0.014c-0.042-0.023-0.075-0.045-0.114-0.06c-0.028-0.033-0.063-0.062-0.107-0.085
			c-0.039-0.023-0.075-0.054-0.109-0.086c-0.015,0-0.027,0-0.034,0s-0.014-0.009-0.014-0.024c-0.016,0-0.03-0.002-0.038-0.012
			c-0.006-0.009-0.014-0.021-0.014-0.036c-0.027-0.033-0.063-0.06-0.093-0.087c-0.032-0.023-0.067-0.042-0.099-0.059
			c-0.034-0.034-0.063-0.063-0.088-0.087c-0.023-0.025-0.051-0.045-0.084-0.063c-0.018-0.014-0.027-0.029-0.037-0.047
			c-0.01-0.016-0.021-0.033-0.037-0.05c-0.016-0.015-0.029-0.03-0.035-0.049c-0.008-0.015-0.02-0.031-0.037-0.048
			c-0.016-0.033-0.038-0.074-0.059-0.121c-0.027-0.051-0.059-0.107-0.086-0.17c-0.016-0.049-0.031-0.106-0.049-0.173
			c-0.018-0.064-0.023-0.13-0.023-0.194V11.913l1.071-0.999v-0.049h-3.534C204.373,10.897,204.373,10.924,204.373,10.938z"/>
	</g>
	<rect fill="none" stroke="#FFFFFF" stroke-width="2" stroke-miterlimit="10" width="220.738" height="37.975"/>
</g>
</svg>
